<?xml version="1.0" encoding="UTF-8" standalone="no"?><svg xmlns="http://www.w3.org/2000/svg" xmlns:xlink="http://www.w3.org/1999/xlink" contentScriptType="application/ecmascript" contentStyleType="text/css" height="594px" preserveAspectRatio="none" style="width:740px;height:594px;" version="1.1" viewBox="0 0 740 594" width="740px" zoomAndPan="magnify"><defs><filter height="300%" id="f1i887wzd2fhw" width="300%" x="-1" y="-1"><feGaussianBlur result="blurOut" stdDeviation="2.0"/><feColorMatrix in="blurOut" result="blurOut2" type="matrix" values="0 0 0 0 0 0 0 0 0 0 0 0 0 0 0 0 0 0 .4 0"/><feOffset dx="4.0" dy="4.0" in="blurOut2" result="blurOut3"/><feBlend in="SourceGraphic" in2="blurOut3" mode="normal"/></filter></defs><g><!--MD5=[e5cb729776681896271596c23c31c76c]
cluster dataAndStatusGroup--><!--MD5=[60c9ed31c535bee25c55ce21b5b01399]
class Data--><rect codeLine="6" fill="#F8F8F8" filter="url(#f1i887wzd2fhw)" height="89.5078" id="Data" style="stroke:#383838;stroke-width:1.5;" width="154" x="7" y="62"/><ellipse cx="66.75" cy="78" fill="#C2C2C2" rx="11" ry="11" style="stroke:#383838;stroke-width:1.0;"/><path d="M69.5156,73.875 Q69.6719,73.6563 69.8594,73.5469 Q70.0469,73.4375 70.2656,73.4375 Q70.6406,73.4375 70.875,73.7031 Q71.1094,73.9531 71.1094,74.5625 L71.1094,76.0156 Q71.1094,76.625 70.875,76.8906 Q70.6406,77.1563 70.2656,77.1563 Q69.9219,77.1563 69.7188,76.9531 Q69.5156,76.7656 69.4063,76.25 Q69.3594,75.8906 69.1719,75.7031 Q68.8438,75.3281 68.2344,75.1094 Q67.625,74.8906 67,74.8906 Q66.2344,74.8906 65.5938,75.2188 Q64.9688,75.5469 64.4688,76.2969 Q63.9844,77.0469 63.9844,78.0781 L63.9844,79.1719 Q63.9844,80.4063 64.875,81.2344 Q65.7656,82.0469 67.3594,82.0469 Q68.2969,82.0469 68.9531,81.7969 Q69.3438,81.6406 69.7656,81.2031 Q70.0313,80.9375 70.1719,80.8594 Q70.3281,80.7813 70.5313,80.7813 Q70.8594,80.7813 71.1094,81.0469 Q71.375,81.2969 71.375,81.6406 Q71.375,81.9844 71.0313,82.3906 Q70.5313,82.9688 69.7344,83.2969 Q68.6563,83.75 67.3594,83.75 Q65.8438,83.75 64.6406,83.125 Q63.6563,82.625 62.9688,81.5625 Q62.2813,80.4844 62.2813,79.2031 L62.2813,78.0469 Q62.2813,76.7188 62.8906,75.5781 Q63.5156,74.4219 64.6094,73.8125 Q65.7031,73.1875 66.9375,73.1875 Q67.6719,73.1875 68.3125,73.3594 Q68.9688,73.5156 69.5156,73.875 Z " fill="#000000"/><text fill="#000000" font-family="sans-serif" font-size="12" lengthAdjust="spacing" textLength="26" x="87.25" y="82.9102">Data</text><line style="stroke:#383838;stroke-width:1.5;" x1="8" x2="160" y1="94" y2="94"/><text fill="#000000" font-family="sans-serif" font-size="11" lengthAdjust="spacing" textLength="71" x="13" y="109.4189">+vGuestBook[]</text><text fill="#000000" font-family="sans-serif" font-size="11" lengthAdjust="spacing" textLength="105" x="13" y="123.2549">+bChangeState = true</text><text fill="#000000" font-family="sans-serif" font-size="11" lengthAdjust="spacing" textLength="142" x="13" y="137.0908">+nPreviousRandomNumber=1</text><line style="stroke:#383838;stroke-width:1.5;" x1="8" x2="160" y1="143.5078" y2="143.5078"/><!--MD5=[e3d83ec5fd90ea9f3f2bfe265cb53458]
class Status--><rect codeLine="12" fill="#F8F8F8" filter="url(#f1i887wzd2fhw)" height="131.0156" id="Status" style="stroke:#383838;stroke-width:1.5;" width="131" x="29.5" y="306"/><ellipse cx="73.3" cy="322" fill="#C2C2C2" rx="11" ry="11" style="stroke:#383838;stroke-width:1.0;"/><path d="M76.0656,317.875 Q76.2219,317.6563 76.4094,317.5469 Q76.5969,317.4375 76.8156,317.4375 Q77.1906,317.4375 77.425,317.7031 Q77.6594,317.9531 77.6594,318.5625 L77.6594,320.0156 Q77.6594,320.625 77.425,320.8906 Q77.1906,321.1563 76.8156,321.1563 Q76.4719,321.1563 76.2688,320.9531 Q76.0656,320.7656 75.9563,320.25 Q75.9094,319.8906 75.7219,319.7031 Q75.3938,319.3281 74.7844,319.1094 Q74.175,318.8906 73.55,318.8906 Q72.7844,318.8906 72.1438,319.2188 Q71.5188,319.5469 71.0188,320.2969 Q70.5344,321.0469 70.5344,322.0781 L70.5344,323.1719 Q70.5344,324.4063 71.425,325.2344 Q72.3156,326.0469 73.9094,326.0469 Q74.8469,326.0469 75.5031,325.7969 Q75.8938,325.6406 76.3156,325.2031 Q76.5813,324.9375 76.7219,324.8594 Q76.8781,324.7813 77.0813,324.7813 Q77.4094,324.7813 77.6594,325.0469 Q77.925,325.2969 77.925,325.6406 Q77.925,325.9844 77.5813,326.3906 Q77.0813,326.9688 76.2844,327.2969 Q75.2063,327.75 73.9094,327.75 Q72.3938,327.75 71.1906,327.125 Q70.2063,326.625 69.5188,325.5625 Q68.8313,324.4844 68.8313,323.2031 L68.8313,322.0469 Q68.8313,320.7188 69.4406,319.5781 Q70.0656,318.4219 71.1594,317.8125 Q72.2531,317.1875 73.4875,317.1875 Q74.2219,317.1875 74.8625,317.3594 Q75.5188,317.5156 76.0656,317.875 Z " fill="#000000"/><text fill="#000000" font-family="sans-serif" font-size="12" lengthAdjust="spacing" textLength="35" x="93.7" y="326.9102">Status</text><line style="stroke:#383838;stroke-width:1.5;" x1="30.5" x2="159.5" y1="338" y2="338"/><text fill="#000000" font-family="sans-serif" font-size="11" lengthAdjust="spacing" textLength="119" x="35.5" y="353.4189">-bExecutionStatus = true</text><text fill="#000000" font-family="sans-serif" font-size="11" lengthAdjust="spacing" textLength="84" x="35.5" y="367.2549">-spExecMessage</text><line style="stroke:#383838;stroke-width:1.5;" x1="30.5" x2="159.5" y1="373.6719" y2="373.6719"/><text fill="#000000" font-family="sans-serif" font-size="11" lengthAdjust="spacing" textLength="60" x="35.5" y="389.0908">+setStatus()</text><text fill="#000000" font-family="sans-serif" font-size="11" lengthAdjust="spacing" textLength="104" x="35.5" y="402.9268">+setStatusMessage()</text><text fill="#000000" font-family="sans-serif" font-size="11" lengthAdjust="spacing" textLength="60" x="35.5" y="416.7627">+getStatus()</text><text fill="#000000" font-family="sans-serif" font-size="11" lengthAdjust="spacing" textLength="104" x="35.5" y="430.5986">+getStatusMessage()</text><!--MD5=[3626c233e602113c8cf5977cfac9c02f]
class StateMachine--><rect codeLine="21" fill="#F8F8F8" filter="url(#f1i887wzd2fhw)" height="200.1953" id="StateMachine" style="stroke:#383838;stroke-width:1.5;" width="141" x="196.5" y="7"/><ellipse cx="227.25" cy="23" fill="#C2C2C2" rx="11" ry="11" style="stroke:#383838;stroke-width:1.0;"/><path d="M230.0156,18.875 Q230.1719,18.6563 230.3594,18.5469 Q230.5469,18.4375 230.7656,18.4375 Q231.1406,18.4375 231.375,18.7031 Q231.6094,18.9531 231.6094,19.5625 L231.6094,21.0156 Q231.6094,21.625 231.375,21.8906 Q231.1406,22.1563 230.7656,22.1563 Q230.4219,22.1563 230.2188,21.9531 Q230.0156,21.7656 229.9063,21.25 Q229.8594,20.8906 229.6719,20.7031 Q229.3438,20.3281 228.7344,20.1094 Q228.125,19.8906 227.5,19.8906 Q226.7344,19.8906 226.0938,20.2188 Q225.4688,20.5469 224.9688,21.2969 Q224.4844,22.0469 224.4844,23.0781 L224.4844,24.1719 Q224.4844,25.4063 225.375,26.2344 Q226.2656,27.0469 227.8594,27.0469 Q228.7969,27.0469 229.4531,26.7969 Q229.8438,26.6406 230.2656,26.2031 Q230.5313,25.9375 230.6719,25.8594 Q230.8281,25.7813 231.0313,25.7813 Q231.3594,25.7813 231.6094,26.0469 Q231.875,26.2969 231.875,26.6406 Q231.875,26.9844 231.5313,27.3906 Q231.0313,27.9688 230.2344,28.2969 Q229.1563,28.75 227.8594,28.75 Q226.3438,28.75 225.1406,28.125 Q224.1563,27.625 223.4688,26.5625 Q222.7813,25.4844 222.7813,24.2031 L222.7813,23.0469 Q222.7813,21.7188 223.3906,20.5781 Q224.0156,19.4219 225.1094,18.8125 Q226.2031,18.1875 227.4375,18.1875 Q228.1719,18.1875 228.8125,18.3594 Q229.4688,18.5156 230.0156,18.875 Z " fill="#000000"/><text fill="#000000" font-family="sans-serif" font-size="12" lengthAdjust="spacing" textLength="74" x="244.75" y="27.9102">StateMachine</text><line style="stroke:#383838;stroke-width:1.5;" x1="197.5" x2="336.5" y1="39" y2="39"/><text fill="#000000" font-family="sans-serif" font-size="11" lengthAdjust="spacing" textLength="38" x="202.5" y="54.4189">-spData</text><text fill="#000000" font-family="sans-serif" font-size="11" lengthAdjust="spacing" textLength="47" x="202.5" y="68.2549">-spStatus</text><text fill="#000000" font-family="sans-serif" font-size="11" lengthAdjust="spacing" textLength="72" x="202.5" y="82.0908">-spActualState</text><text fill="#000000" font-family="sans-serif" font-size="11" lengthAdjust="spacing" textLength="63" x="202.5" y="95.9268">-spNextState</text><text fill="#000000" font-family="sans-serif" font-size="11" lengthAdjust="spacing" textLength="47" x="202.5" y="109.7627">-spState1</text><text fill="#000000" font-family="sans-serif" font-size="11" lengthAdjust="spacing" textLength="47" x="202.5" y="123.5986">-spState2</text><text fill="#000000" font-family="sans-serif" font-size="11" lengthAdjust="spacing" textLength="47" x="202.5" y="137.4346">-spState3</text><text fill="#000000" font-family="sans-serif" font-size="11" lengthAdjust="spacing" textLength="47" x="202.5" y="151.2705">-spState4</text><line style="stroke:#383838;stroke-width:1.5;" x1="197.5" x2="336.5" y1="157.6875" y2="157.6875"/><text fill="#000000" font-family="sans-serif" font-size="11" lengthAdjust="spacing" textLength="51" x="202.5" y="173.1064">+runSTM()</text><text fill="#000000" font-family="sans-serif" font-size="11" lengthAdjust="spacing" textLength="129" x="202.5" y="186.9424">#checkForChangingState()</text><text fill="#000000" font-family="sans-serif" font-size="11" lengthAdjust="spacing" textLength="75" x="202.5" y="200.7783">#changeState()</text><!--MD5=[60d6b92408f98aed8df94d5c6e04aa63]
class State--><rect codeLine="35" fill="#F8F8F8" filter="url(#f1i887wzd2fhw)" height="172.5234" id="State" style="stroke:#383838;stroke-width:1.5;" width="137" x="364.5" y="285"/><ellipse cx="414.75" cy="301" fill="#C2C2C2" rx="11" ry="11" style="stroke:#383838;stroke-width:1.0;"/><path d="M417.5156,296.875 Q417.6719,296.6563 417.8594,296.5469 Q418.0469,296.4375 418.2656,296.4375 Q418.6406,296.4375 418.875,296.7031 Q419.1094,296.9531 419.1094,297.5625 L419.1094,299.0156 Q419.1094,299.625 418.875,299.8906 Q418.6406,300.1563 418.2656,300.1563 Q417.9219,300.1563 417.7188,299.9531 Q417.5156,299.7656 417.4063,299.25 Q417.3594,298.8906 417.1719,298.7031 Q416.8438,298.3281 416.2344,298.1094 Q415.625,297.8906 415,297.8906 Q414.2344,297.8906 413.5938,298.2188 Q412.9688,298.5469 412.4688,299.2969 Q411.9844,300.0469 411.9844,301.0781 L411.9844,302.1719 Q411.9844,303.4063 412.875,304.2344 Q413.7656,305.0469 415.3594,305.0469 Q416.2969,305.0469 416.9531,304.7969 Q417.3438,304.6406 417.7656,304.2031 Q418.0313,303.9375 418.1719,303.8594 Q418.3281,303.7813 418.5313,303.7813 Q418.8594,303.7813 419.1094,304.0469 Q419.375,304.2969 419.375,304.6406 Q419.375,304.9844 419.0313,305.3906 Q418.5313,305.9688 417.7344,306.2969 Q416.6563,306.75 415.3594,306.75 Q413.8438,306.75 412.6406,306.125 Q411.6563,305.625 410.9688,304.5625 Q410.2813,303.4844 410.2813,302.2031 L410.2813,301.0469 Q410.2813,299.7188 410.8906,298.5781 Q411.5156,297.4219 412.6094,296.8125 Q413.7031,296.1875 414.9375,296.1875 Q415.6719,296.1875 416.3125,296.3594 Q416.9688,296.5156 417.5156,296.875 Z " fill="#000000"/><text fill="#000000" font-family="sans-serif" font-size="12" lengthAdjust="spacing" textLength="28" x="435.25" y="305.9102">State</text><line style="stroke:#383838;stroke-width:1.5;" x1="365.5" x2="500.5" y1="317" y2="317"/><text fill="#000000" font-family="sans-serif" font-size="11" lengthAdjust="spacing" textLength="40" x="370.5" y="332.4189">#spData</text><text fill="#000000" font-family="sans-serif" font-size="11" lengthAdjust="spacing" textLength="49" x="370.5" y="346.2549">#spStatus</text><text fill="#000000" font-family="sans-serif" font-size="11" lengthAdjust="spacing" textLength="111" x="370.5" y="360.0908">#spPossibleNextStates</text><text fill="#000000" font-family="sans-serif" font-size="11" lengthAdjust="spacing" textLength="65" x="370.5" y="373.9268">#spNextState</text><line style="stroke:#383838;stroke-width:1.5;" x1="365.5" x2="500.5" y1="380.3438" y2="380.3438"/><text fill="#000000" font-family="sans-serif" font-size="11" lengthAdjust="spacing" textLength="125" x="370.5" y="395.7627">+addPossibleNextStates()</text><text fill="#000000" font-family="sans-serif" font-size="11" lengthAdjust="spacing" textLength="90" x="370.5" y="409.5986">+returnNextState()</text><text fill="#000000" font-family="sans-serif" font-size="11" font-style="italic" lengthAdjust="spacing" textLength="103" x="370.5" y="423.4346">+executeStateTask()</text><text fill="#000000" font-family="sans-serif" font-size="11" lengthAdjust="spacing" textLength="84" x="370.5" y="437.2705">+setDataPointer()</text><text fill="#000000" font-family="sans-serif" font-size="11" lengthAdjust="spacing" textLength="93" x="370.5" y="451.1064">+setStatusPointer()</text><!--MD5=[fea294b58d473e9280cfe4c83798149e]
class State1--><rect codeLine="46" fill="#F8F8F8" filter="url(#f1i887wzd2fhw)" height="61.8359" id="State1" style="stroke:#383838;stroke-width:1.5;" width="113" x="317.5" y="519"/><ellipse cx="353.2" cy="535" fill="#C2C2C2" rx="11" ry="11" style="stroke:#383838;stroke-width:1.0;"/><path d="M355.9656,530.875 Q356.1219,530.6563 356.3094,530.5469 Q356.4969,530.4375 356.7156,530.4375 Q357.0906,530.4375 357.325,530.7031 Q357.5594,530.9531 357.5594,531.5625 L357.5594,533.0156 Q357.5594,533.625 357.325,533.8906 Q357.0906,534.1563 356.7156,534.1563 Q356.3719,534.1563 356.1688,533.9531 Q355.9656,533.7656 355.8563,533.25 Q355.8094,532.8906 355.6219,532.7031 Q355.2938,532.3281 354.6844,532.1094 Q354.075,531.8906 353.45,531.8906 Q352.6844,531.8906 352.0438,532.2188 Q351.4188,532.5469 350.9188,533.2969 Q350.4344,534.0469 350.4344,535.0781 L350.4344,536.1719 Q350.4344,537.4063 351.325,538.2344 Q352.2156,539.0469 353.8094,539.0469 Q354.7469,539.0469 355.4031,538.7969 Q355.7938,538.6406 356.2156,538.2031 Q356.4813,537.9375 356.6219,537.8594 Q356.7781,537.7813 356.9813,537.7813 Q357.3094,537.7813 357.5594,538.0469 Q357.825,538.2969 357.825,538.6406 Q357.825,538.9844 357.4813,539.3906 Q356.9813,539.9688 356.1844,540.2969 Q355.1063,540.75 353.8094,540.75 Q352.2938,540.75 351.0906,540.125 Q350.1063,539.625 349.4188,538.5625 Q348.7313,537.4844 348.7313,536.2031 L348.7313,535.0469 Q348.7313,533.7188 349.3406,532.5781 Q349.9656,531.4219 351.0594,530.8125 Q352.1531,530.1875 353.3875,530.1875 Q354.1219,530.1875 354.7625,530.3594 Q355.4188,530.5156 355.9656,530.875 Z " fill="#000000"/><text fill="#000000" font-family="sans-serif" font-size="12" lengthAdjust="spacing" textLength="35" x="371.8" y="539.9102">State1</text><line style="stroke:#383838;stroke-width:1.5;" x1="318.5" x2="429.5" y1="551" y2="551"/><line style="stroke:#383838;stroke-width:1.5;" x1="318.5" x2="429.5" y1="559" y2="559"/><text fill="#000000" font-family="sans-serif" font-size="11" lengthAdjust="spacing" textLength="101" x="323.5" y="574.4189">+executeStateTask()</text><!--MD5=[8cc037637095e940935efba53ef29e5a]
class State2--><rect codeLine="49" fill="#F8F8F8" filter="url(#f1i887wzd2fhw)" height="61.8359" id="State2" style="stroke:#383838;stroke-width:1.5;" width="113" x="169.5" y="519"/><ellipse cx="205.2" cy="535" fill="#C2C2C2" rx="11" ry="11" style="stroke:#383838;stroke-width:1.0;"/><path d="M207.9656,530.875 Q208.1219,530.6563 208.3094,530.5469 Q208.4969,530.4375 208.7156,530.4375 Q209.0906,530.4375 209.325,530.7031 Q209.5594,530.9531 209.5594,531.5625 L209.5594,533.0156 Q209.5594,533.625 209.325,533.8906 Q209.0906,534.1563 208.7156,534.1563 Q208.3719,534.1563 208.1688,533.9531 Q207.9656,533.7656 207.8563,533.25 Q207.8094,532.8906 207.6219,532.7031 Q207.2938,532.3281 206.6844,532.1094 Q206.075,531.8906 205.45,531.8906 Q204.6844,531.8906 204.0438,532.2188 Q203.4188,532.5469 202.9188,533.2969 Q202.4344,534.0469 202.4344,535.0781 L202.4344,536.1719 Q202.4344,537.4063 203.325,538.2344 Q204.2156,539.0469 205.8094,539.0469 Q206.7469,539.0469 207.4031,538.7969 Q207.7938,538.6406 208.2156,538.2031 Q208.4813,537.9375 208.6219,537.8594 Q208.7781,537.7813 208.9813,537.7813 Q209.3094,537.7813 209.5594,538.0469 Q209.825,538.2969 209.825,538.6406 Q209.825,538.9844 209.4813,539.3906 Q208.9813,539.9688 208.1844,540.2969 Q207.1063,540.75 205.8094,540.75 Q204.2938,540.75 203.0906,540.125 Q202.1063,539.625 201.4188,538.5625 Q200.7313,537.4844 200.7313,536.2031 L200.7313,535.0469 Q200.7313,533.7188 201.3406,532.5781 Q201.9656,531.4219 203.0594,530.8125 Q204.1531,530.1875 205.3875,530.1875 Q206.1219,530.1875 206.7625,530.3594 Q207.4188,530.5156 207.9656,530.875 Z " fill="#000000"/><text fill="#000000" font-family="sans-serif" font-size="12" lengthAdjust="spacing" textLength="35" x="223.8" y="539.9102">State2</text><line style="stroke:#383838;stroke-width:1.5;" x1="170.5" x2="281.5" y1="551" y2="551"/><line style="stroke:#383838;stroke-width:1.5;" x1="170.5" x2="281.5" y1="559" y2="559"/><text fill="#000000" font-family="sans-serif" font-size="11" lengthAdjust="spacing" textLength="101" x="175.5" y="574.4189">+executeStateTask()</text><!--MD5=[4eb8b94b51d112d8c70b26f7c75650e7]
class State3--><rect codeLine="52" fill="#F8F8F8" filter="url(#f1i887wzd2fhw)" height="61.8359" id="State3" style="stroke:#383838;stroke-width:1.5;" width="113" x="613.5" y="519"/><ellipse cx="649.2" cy="535" fill="#C2C2C2" rx="11" ry="11" style="stroke:#383838;stroke-width:1.0;"/><path d="M651.9656,530.875 Q652.1219,530.6563 652.3094,530.5469 Q652.4969,530.4375 652.7156,530.4375 Q653.0906,530.4375 653.325,530.7031 Q653.5594,530.9531 653.5594,531.5625 L653.5594,533.0156 Q653.5594,533.625 653.325,533.8906 Q653.0906,534.1563 652.7156,534.1563 Q652.3719,534.1563 652.1688,533.9531 Q651.9656,533.7656 651.8563,533.25 Q651.8094,532.8906 651.6219,532.7031 Q651.2938,532.3281 650.6844,532.1094 Q650.075,531.8906 649.45,531.8906 Q648.6844,531.8906 648.0438,532.2188 Q647.4188,532.5469 646.9188,533.2969 Q646.4344,534.0469 646.4344,535.0781 L646.4344,536.1719 Q646.4344,537.4063 647.325,538.2344 Q648.2156,539.0469 649.8094,539.0469 Q650.7469,539.0469 651.4031,538.7969 Q651.7938,538.6406 652.2156,538.2031 Q652.4813,537.9375 652.6219,537.8594 Q652.7781,537.7813 652.9813,537.7813 Q653.3094,537.7813 653.5594,538.0469 Q653.825,538.2969 653.825,538.6406 Q653.825,538.9844 653.4813,539.3906 Q652.9813,539.9688 652.1844,540.2969 Q651.1063,540.75 649.8094,540.75 Q648.2938,540.75 647.0906,540.125 Q646.1063,539.625 645.4188,538.5625 Q644.7313,537.4844 644.7313,536.2031 L644.7313,535.0469 Q644.7313,533.7188 645.3406,532.5781 Q645.9656,531.4219 647.0594,530.8125 Q648.1531,530.1875 649.3875,530.1875 Q650.1219,530.1875 650.7625,530.3594 Q651.4188,530.5156 651.9656,530.875 Z " fill="#000000"/><text fill="#000000" font-family="sans-serif" font-size="12" lengthAdjust="spacing" textLength="35" x="667.8" y="539.9102">State3</text><line style="stroke:#383838;stroke-width:1.5;" x1="614.5" x2="725.5" y1="551" y2="551"/><line style="stroke:#383838;stroke-width:1.5;" x1="614.5" x2="725.5" y1="559" y2="559"/><text fill="#000000" font-family="sans-serif" font-size="11" lengthAdjust="spacing" textLength="101" x="619.5" y="574.4189">+executeStateTask()</text><!--MD5=[02e0c6537f9e3f2f31d64057536da69a]
class State4--><rect codeLine="55" fill="#F8F8F8" filter="url(#f1i887wzd2fhw)" height="61.8359" id="State4" style="stroke:#383838;stroke-width:1.5;" width="113" x="465.5" y="519"/><ellipse cx="501.2" cy="535" fill="#C2C2C2" rx="11" ry="11" style="stroke:#383838;stroke-width:1.0;"/><path d="M503.9656,530.875 Q504.1219,530.6563 504.3094,530.5469 Q504.4969,530.4375 504.7156,530.4375 Q505.0906,530.4375 505.325,530.7031 Q505.5594,530.9531 505.5594,531.5625 L505.5594,533.0156 Q505.5594,533.625 505.325,533.8906 Q505.0906,534.1563 504.7156,534.1563 Q504.3719,534.1563 504.1688,533.9531 Q503.9656,533.7656 503.8563,533.25 Q503.8094,532.8906 503.6219,532.7031 Q503.2938,532.3281 502.6844,532.1094 Q502.075,531.8906 501.45,531.8906 Q500.6844,531.8906 500.0438,532.2188 Q499.4188,532.5469 498.9188,533.2969 Q498.4344,534.0469 498.4344,535.0781 L498.4344,536.1719 Q498.4344,537.4063 499.325,538.2344 Q500.2156,539.0469 501.8094,539.0469 Q502.7469,539.0469 503.4031,538.7969 Q503.7938,538.6406 504.2156,538.2031 Q504.4813,537.9375 504.6219,537.8594 Q504.7781,537.7813 504.9813,537.7813 Q505.3094,537.7813 505.5594,538.0469 Q505.825,538.2969 505.825,538.6406 Q505.825,538.9844 505.4813,539.3906 Q504.9813,539.9688 504.1844,540.2969 Q503.1063,540.75 501.8094,540.75 Q500.2938,540.75 499.0906,540.125 Q498.1063,539.625 497.4188,538.5625 Q496.7313,537.4844 496.7313,536.2031 L496.7313,535.0469 Q496.7313,533.7188 497.3406,532.5781 Q497.9656,531.4219 499.0594,530.8125 Q500.1531,530.1875 501.3875,530.1875 Q502.1219,530.1875 502.7625,530.3594 Q503.4188,530.5156 503.9656,530.875 Z " fill="#000000"/><text fill="#000000" font-family="sans-serif" font-size="12" lengthAdjust="spacing" textLength="35" x="519.8" y="539.9102">State4</text><line style="stroke:#383838;stroke-width:1.5;" x1="466.5" x2="577.5" y1="551" y2="551"/><line style="stroke:#383838;stroke-width:1.5;" x1="466.5" x2="577.5" y1="559" y2="559"/><text fill="#000000" font-family="sans-serif" font-size="11" lengthAdjust="spacing" textLength="101" x="471.5" y="574.4189">+executeStateTask()</text><!--MD5=[66b0167828a6010fca56e2affda5d022]
reverse link State to State1--><path codeLine="59" d="M397.99,477.23 C392.92,492.4 388.08,506.89 384.09,518.83 " fill="none" id="State-backto-State1" style="stroke:#383838;stroke-width:1.0;"/><polygon fill="none" points="391.38,474.91,404.36,458.16,404.66,479.35,391.38,474.91" style="stroke:#383838;stroke-width:1.0;"/><!--MD5=[d723ca8acf6686879b161e363a2a1b18]
reverse link State to State2--><path codeLine="60" d="M349.1,444.04 C318.47,470.15 285.48,498.29 261.36,518.85 " fill="none" id="State-backto-State2" style="stroke:#383838;stroke-width:1.0;"/><polygon fill="none" points="344.6,438.68,364.36,431.03,353.68,449.33,344.6,438.68" style="stroke:#383838;stroke-width:1.0;"/><!--MD5=[0e8ad03afc6f872c2e6a1f2b495cb124]
reverse link State to State3--><path codeLine="61" d="M517.75,435.62 C555.76,463.92 598.81,495.99 629.42,518.78 " fill="none" id="State-backto-State3" style="stroke:#383838;stroke-width:1.0;"/><polygon fill="none" points="513.41,441.11,501.55,423.55,521.77,429.88,513.41,441.11" style="stroke:#383838;stroke-width:1.0;"/><!--MD5=[cecdd715c38a024475b75ecac9c61f45]
reverse link State to State4--><path codeLine="62" d="M481.46,476.18 C483.64,480.52 485.83,484.81 488,489 C493.07,498.78 498.89,509.28 504.26,518.72 " fill="none" id="State-backto-State4" style="stroke:#383838;stroke-width:1.0;"/><polygon fill="none" points="475.12,479.15,472.53,458.12,487.67,472.94,475.12,479.15" style="stroke:#383838;stroke-width:1.0;"/><!--MD5=[6c9d0c028cf691fcd8268428fd120071]
link StateMachine to State1--><path codeLine="65" d="M289.8653,218.7456 C289.8653,218.7456 325.65,380.83 347,461 C350.94,475.78 355.7,491.81 360.13,506.08 " fill="none" id="StateMachine-State1" style="stroke:#383838;stroke-width:1.0;"/><polygon fill="#383838" points="364.06,518.62,365.1755,508.8345,362.5599,513.8503,357.544,511.2347,364.06,518.62" style="stroke:#383838;stroke-width:1.0;"/><line style="stroke:#383838;stroke-width:1.0;" x1="362.5599" x2="360.17" y1="513.8503" y2="506.215"/><polygon fill="#383838" points="287.36,207.01,284.7008,213.7129,289.8653,218.7456,292.5245,212.0427,287.36,207.01" style="stroke:#383838;stroke-width:1.0;"/><!--MD5=[fbfba0ce0315dbdfe836a8b1ff23dc33]
link StateMachine to State2--><path codeLine="66" d="M256.6622,219.1888 C256.6622,219.1888 236.11,440.23 230.01,505.82 " fill="none" id="StateMachine-State2" style="stroke:#383838;stroke-width:1.0;"/><polygon fill="#383838" points="228.8,518.86,233.6138,510.2677,229.2616,513.8814,225.648,509.5292,228.8,518.86" style="stroke:#383838;stroke-width:1.0;"/><line style="stroke:#383838;stroke-width:1.0;" x1="229.2616" x2="230.01" y1="513.8814" y2="505.91"/><polygon fill="#383838" points="257.77,207.24,253.2332,212.8451,256.6622,219.1888,261.199,213.5837,257.77,207.24" style="stroke:#383838;stroke-width:1.0;"/><!--MD5=[0bb6fba71c5b65a3fdb9eb05cbb582e1]
link StateMachine to State3--><path codeLine="67" d="M348.6631,139.6591 C348.6631,139.6591 467.28,195.85 518,237 C604.24,306.96 645.09,437.9 661.2,505.75 " fill="none" id="StateMachine-State3" style="stroke:#383838;stroke-width:1.0;"/><polygon fill="#383838" points="664.19,518.84,666.0813,509.1745,663.0745,513.966,658.283,510.9592,664.19,518.84" style="stroke:#383838;stroke-width:1.0;"/><line style="stroke:#383838;stroke-width:1.0;" x1="663.0745" x2="661.295" y1="513.966" y2="506.165"/><polygon fill="#383838" points="337.63,134.94,341.5735,140.9773,348.6631,139.6591,344.7196,133.6218,337.63,134.94" style="stroke:#383838;stroke-width:1.0;"/><!--MD5=[1a00cf9724e8eb788bb3097a613be007]
link StateMachine to State4--><path codeLine="68" d="M348.5891,140.748 C348.5891,140.748 483.27,217.19 519,285 C555.93,355.09 544.36,450.89 532.94,505.72 " fill="none" id="StateMachine-State4" style="stroke:#383838;stroke-width:1.0;"/><polygon fill="#383838" points="530.08,518.74,535.9239,510.8123,531.1565,513.8573,528.1115,509.0899,530.08,518.74" style="stroke:#383838;stroke-width:1.0;"/><line style="stroke:#383838;stroke-width:1.0;" x1="531.1565" x2="532.875" y1="513.8573" y2="506.05"/><polygon fill="#383838" points="337.74,135.62,341.4552,141.8004,348.5891,140.748,344.8739,134.5676,337.74,135.62" style="stroke:#383838;stroke-width:1.0;"/><!--MD5=[7351fdc9e1282cf1b2c94df03d5ea53b]
link StateMachine to State--><path codeLine="70" d="M329.76,207.24 C344.97,231.3 361.15,256.88 376.07,280.48 " fill="none" id="StateMachine-to-State" style="stroke:#383838;stroke-width:1.0;stroke-dasharray:7.0,7.0;"/><polygon fill="#383838" points="378.85,284.87,377.4248,275.1248,376.1795,280.6429,370.6614,279.3976,378.85,284.87" style="stroke:#383838;stroke-width:1.0;"/><text fill="#000000" font-family="sans-serif" font-size="13" lengthAdjust="spacing" textLength="42" x="361" y="251.4951">«uses»</text><!--MD5=[565a62bc6257387e7aedcdc61096ef1d]
link Data to Status--><!--MD5=[37d9c16245e4a369af3b62ca7f660c67]
link StateMachine to Data--><path codeLine="73" d="M184.4086,140.3715 C184.4086,140.3715 177.35,140.77 174.38,140.74 " fill="none" id="StateMachine-Data" style="stroke:#383838;stroke-width:1.0;"/><polygon fill="#383838" points="161.2,139.93,169.9367,144.4764,166.1905,140.2378,170.4292,136.4916,161.2,139.93" style="stroke:#383838;stroke-width:1.0;"/><line style="stroke:#383838;stroke-width:1.0;" x1="166.1905" x2="174.18" y1="140.2378" y2="140.73"/><polygon fill="#FFFFFF" points="196.33,139,189.9122,135.712,184.4086,140.3715,190.8265,143.6595,196.33,139" style="stroke:#383838;stroke-width:1.0;"/><!--MD5=[37d9c16245e4a369af3b62ca7f660c67]
link StateMachine to Data--><!--MD5=[021419da3b3c5843640be13c305b044e]
link StateMachine to Status--><path codeLine="74" d="M189.6326,207.1634 C189.6326,207.1634 149.58,267.7 133.01,294.66 " fill="none" id="StateMachine-Status" style="stroke:#383838;stroke-width:1.0;"/><polygon fill="#383838" points="126.13,305.96,134.2265,300.3523,128.7299,301.6891,127.3931,296.1925,126.13,305.96" style="stroke:#383838;stroke-width:1.0;"/><line style="stroke:#383838;stroke-width:1.0;" x1="128.7299" x2="132.895" y1="301.6891" y2="294.855"/><polygon fill="#FFFFFF" points="196.38,197.24,189.6985,199.9526,189.6326,207.1634,196.3141,204.4508,196.38,197.24" style="stroke:#383838;stroke-width:1.0;"/><!--MD5=[021419da3b3c5843640be13c305b044e]
link StateMachine to Status--><!--MD5=[df960de4d0710f1ac69d9fb2b139994b]
@startuml

skinparam monochrome true
skinparam classAttributeIconSize 0

together dataAndStatusGroup{
    class Data{
        +vGuestBook[]
        +bChangeState = true
        +nPreviousRandomNumber=1
    }

    class Status{
        +setStatus()
        +setStatusMessage()
        +getStatus()
        +getStatusMessage()
        -bExecutionStatus = true
        -spExecMessage
    }
}
class StateMachine{
    -spData
    -spStatus
    -spActualState
    -spNextState
    -spState1
    -spState2
    -spState3
    -spState4
    +runSTM()
    #checkForChangingState()
    #changeState()
}

class State{
    #spData
    #spStatus
    #spPossibleNextStates
    #spNextState
    +addPossibleNextStates()
    +returnNextState()
    {abstract}+executeStateTask()
    +setDataPointer()
    +setStatusPointer()
}
class State1{
    +executeStateTask()
}
class State2{
    +executeStateTask()
}
class State3{
    +executeStateTask()
}
class State4{
    +executeStateTask()
}

State <|- - State1
State <|- - State2
State <|- - State3
State <|- - State4


StateMachine *- -> State1
StateMachine *- -> State2
StateMachine *- -> State3
StateMachine *- -> State4

StateMachine ..> State:<<uses>>

Data -[hidden]down- Status
StateMachine o- -> Data
StateMachine o- -> Status

StateMachine -[hidden]right- - Data
StateMachine -[hidden]right- - Status

@enduml

PlantUML version 1.2021.00(Sun Jan 10 11:25:05 CET 2021)
(GPL source distribution)
Java Runtime: Java(TM) SE Runtime Environment
JVM: Java HotSpot(TM) 64-Bit Server VM
Default Encoding: Cp1252
Language: de
Country: DE
--></g></svg>