<?xml version="1.0" encoding="UTF-8" standalone="no"?><svg xmlns="http://www.w3.org/2000/svg" xmlns:xlink="http://www.w3.org/1999/xlink" contentScriptType="application/ecmascript" contentStyleType="text/css" height="567px" preserveAspectRatio="none" style="width:733px;height:567px;" version="1.1" viewBox="0 0 733 567" width="733px" zoomAndPan="magnify"><defs><filter height="300%" id="ffrjzjwrd09sx" width="300%" x="-1" y="-1"><feGaussianBlur result="blurOut" stdDeviation="2.0"/><feColorMatrix in="blurOut" result="blurOut2" type="matrix" values="0 0 0 0 0 0 0 0 0 0 0 0 0 0 0 0 0 0 .4 0"/><feOffset dx="4.0" dy="4.0" in="blurOut2" result="blurOut3"/><feBlend in="SourceGraphic" in2="blurOut3" mode="normal"/></filter></defs><g><!--MD5=[e5cb729776681896271596c23c31c76c]
cluster dataAndStatusGroup--><!--MD5=[bdc91f44d8a548d9453ba42f660a453e]
class cData--><rect codeLine="6" fill="#F8F8F8" filter="url(#ffrjzjwrd09sx)" height="89.5078" id="cData" style="stroke:#383838;stroke-width:1.5;" width="154" x="7" y="48.5"/><ellipse cx="63.75" cy="64.5" fill="#C2C2C2" rx="11" ry="11" style="stroke:#383838;stroke-width:1.0;"/><path d="M66.5156,60.375 Q66.6719,60.1563 66.8594,60.0469 Q67.0469,59.9375 67.2656,59.9375 Q67.6406,59.9375 67.875,60.2031 Q68.1094,60.4531 68.1094,61.0625 L68.1094,62.5156 Q68.1094,63.125 67.875,63.3906 Q67.6406,63.6563 67.2656,63.6563 Q66.9219,63.6563 66.7188,63.4531 Q66.5156,63.2656 66.4063,62.75 Q66.3594,62.3906 66.1719,62.2031 Q65.8438,61.8281 65.2344,61.6094 Q64.625,61.3906 64,61.3906 Q63.2344,61.3906 62.5938,61.7188 Q61.9688,62.0469 61.4688,62.7969 Q60.9844,63.5469 60.9844,64.5781 L60.9844,65.6719 Q60.9844,66.9063 61.875,67.7344 Q62.7656,68.5469 64.3594,68.5469 Q65.2969,68.5469 65.9531,68.2969 Q66.3438,68.1406 66.7656,67.7031 Q67.0313,67.4375 67.1719,67.3594 Q67.3281,67.2813 67.5313,67.2813 Q67.8594,67.2813 68.1094,67.5469 Q68.375,67.7969 68.375,68.1406 Q68.375,68.4844 68.0313,68.8906 Q67.5313,69.4688 66.7344,69.7969 Q65.6563,70.25 64.3594,70.25 Q62.8438,70.25 61.6406,69.625 Q60.6563,69.125 59.9688,68.0625 Q59.2813,66.9844 59.2813,65.7031 L59.2813,64.5469 Q59.2813,63.2188 59.8906,62.0781 Q60.5156,60.9219 61.6094,60.3125 Q62.7031,59.6875 63.9375,59.6875 Q64.6719,59.6875 65.3125,59.8594 Q65.9688,60.0156 66.5156,60.375 Z " fill="#000000"/><text fill="#000000" font-family="sans-serif" font-size="12" lengthAdjust="spacing" textLength="32" x="84.25" y="69.4102">cData</text><line style="stroke:#383838;stroke-width:1.5;" x1="8" x2="160" y1="80.5" y2="80.5"/><text fill="#000000" font-family="sans-serif" font-size="11" lengthAdjust="spacing" textLength="79" x="13" y="95.9189">+m_vGuestBook</text><text fill="#000000" font-family="sans-serif" font-size="11" lengthAdjust="spacing" textLength="105" x="13" y="109.7549">+bChangeState = true</text><text fill="#000000" font-family="sans-serif" font-size="11" lengthAdjust="spacing" textLength="142" x="13" y="123.5908">+nPreviousRandomNumber=1</text><line style="stroke:#383838;stroke-width:1.5;" x1="8" x2="160" y1="130.0078" y2="130.0078"/><!--MD5=[38142ea0adbd22f53902db13ecef33d5]
class cStatus--><rect codeLine="12" fill="#F8F8F8" filter="url(#ffrjzjwrd09sx)" height="131.0156" id="cStatus" style="stroke:#383838;stroke-width:1.5;" width="145" x="15.5" y="279"/><ellipse cx="63.25" cy="295" fill="#C2C2C2" rx="11" ry="11" style="stroke:#383838;stroke-width:1.0;"/><path d="M66.0156,290.875 Q66.1719,290.6563 66.3594,290.5469 Q66.5469,290.4375 66.7656,290.4375 Q67.1406,290.4375 67.375,290.7031 Q67.6094,290.9531 67.6094,291.5625 L67.6094,293.0156 Q67.6094,293.625 67.375,293.8906 Q67.1406,294.1563 66.7656,294.1563 Q66.4219,294.1563 66.2188,293.9531 Q66.0156,293.7656 65.9063,293.25 Q65.8594,292.8906 65.6719,292.7031 Q65.3438,292.3281 64.7344,292.1094 Q64.125,291.8906 63.5,291.8906 Q62.7344,291.8906 62.0938,292.2188 Q61.4688,292.5469 60.9688,293.2969 Q60.4844,294.0469 60.4844,295.0781 L60.4844,296.1719 Q60.4844,297.4063 61.375,298.2344 Q62.2656,299.0469 63.8594,299.0469 Q64.7969,299.0469 65.4531,298.7969 Q65.8438,298.6406 66.2656,298.2031 Q66.5313,297.9375 66.6719,297.8594 Q66.8281,297.7813 67.0313,297.7813 Q67.3594,297.7813 67.6094,298.0469 Q67.875,298.2969 67.875,298.6406 Q67.875,298.9844 67.5313,299.3906 Q67.0313,299.9688 66.2344,300.2969 Q65.1563,300.75 63.8594,300.75 Q62.3438,300.75 61.1406,300.125 Q60.1563,299.625 59.4688,298.5625 Q58.7813,297.4844 58.7813,296.2031 L58.7813,295.0469 Q58.7813,293.7188 59.3906,292.5781 Q60.0156,291.4219 61.1094,290.8125 Q62.2031,290.1875 63.4375,290.1875 Q64.1719,290.1875 64.8125,290.3594 Q65.4688,290.5156 66.0156,290.875 Z " fill="#000000"/><text fill="#000000" font-family="sans-serif" font-size="12" lengthAdjust="spacing" textLength="41" x="83.75" y="299.9102">cStatus</text><line style="stroke:#383838;stroke-width:1.5;" x1="16.5" x2="159.5" y1="311" y2="311"/><text fill="#000000" font-family="sans-serif" font-size="11" lengthAdjust="spacing" textLength="133" x="21.5" y="326.4189">-m_bExecutionStatus = true</text><text fill="#000000" font-family="sans-serif" font-size="11" lengthAdjust="spacing" textLength="98" x="21.5" y="340.2549">-m_spExecMessage</text><line style="stroke:#383838;stroke-width:1.5;" x1="16.5" x2="159.5" y1="346.6719" y2="346.6719"/><text fill="#000000" font-family="sans-serif" font-size="11" lengthAdjust="spacing" textLength="61" x="21.5" y="362.0908">+SetStatus()</text><text fill="#000000" font-family="sans-serif" font-size="11" lengthAdjust="spacing" textLength="105" x="21.5" y="375.9268">+SetStatusMessage()</text><text fill="#000000" font-family="sans-serif" font-size="11" lengthAdjust="spacing" textLength="62" x="21.5" y="389.7627">+GetStatus()</text><text fill="#000000" font-family="sans-serif" font-size="11" lengthAdjust="spacing" textLength="106" x="21.5" y="403.5986">+GetStatusMessage()</text><!--MD5=[5162c54ab921c854792b738c13c249da]
class cStateMachine--><rect codeLine="21" fill="#F8F8F8" filter="url(#ffrjzjwrd09sx)" height="172.5234" id="cStateMachine" style="stroke:#383838;stroke-width:1.5;" width="112" x="196" y="7"/><ellipse cx="211" cy="23" fill="#C2C2C2" rx="11" ry="11" style="stroke:#383838;stroke-width:1.0;"/><path d="M213.7656,18.875 Q213.9219,18.6563 214.1094,18.5469 Q214.2969,18.4375 214.5156,18.4375 Q214.8906,18.4375 215.125,18.7031 Q215.3594,18.9531 215.3594,19.5625 L215.3594,21.0156 Q215.3594,21.625 215.125,21.8906 Q214.8906,22.1563 214.5156,22.1563 Q214.1719,22.1563 213.9688,21.9531 Q213.7656,21.7656 213.6563,21.25 Q213.6094,20.8906 213.4219,20.7031 Q213.0938,20.3281 212.4844,20.1094 Q211.875,19.8906 211.25,19.8906 Q210.4844,19.8906 209.8438,20.2188 Q209.2188,20.5469 208.7188,21.2969 Q208.2344,22.0469 208.2344,23.0781 L208.2344,24.1719 Q208.2344,25.4063 209.125,26.2344 Q210.0156,27.0469 211.6094,27.0469 Q212.5469,27.0469 213.2031,26.7969 Q213.5938,26.6406 214.0156,26.2031 Q214.2813,25.9375 214.4219,25.8594 Q214.5781,25.7813 214.7813,25.7813 Q215.1094,25.7813 215.3594,26.0469 Q215.625,26.2969 215.625,26.6406 Q215.625,26.9844 215.2813,27.3906 Q214.7813,27.9688 213.9844,28.2969 Q212.9063,28.75 211.6094,28.75 Q210.0938,28.75 208.8906,28.125 Q207.9063,27.625 207.2188,26.5625 Q206.5313,25.4844 206.5313,24.2031 L206.5313,23.0469 Q206.5313,21.7188 207.1406,20.5781 Q207.7656,19.4219 208.8594,18.8125 Q209.9531,18.1875 211.1875,18.1875 Q211.9219,18.1875 212.5625,18.3594 Q213.2188,18.5156 213.7656,18.875 Z " fill="#000000"/><text fill="#000000" font-family="sans-serif" font-size="12" lengthAdjust="spacing" textLength="80" x="225" y="27.9102">cStateMachine</text><line style="stroke:#383838;stroke-width:1.5;" x1="197" x2="307" y1="39" y2="39"/><text fill="#000000" font-family="sans-serif" font-size="11" lengthAdjust="spacing" textLength="52" x="202" y="54.4189">-m_spData</text><text fill="#000000" font-family="sans-serif" font-size="11" lengthAdjust="spacing" textLength="61" x="202" y="68.2549">-m_spStatus</text><text fill="#000000" font-family="sans-serif" font-size="11" lengthAdjust="spacing" textLength="86" x="202" y="82.0908">-m_spActualState</text><text fill="#000000" font-family="sans-serif" font-size="11" lengthAdjust="spacing" textLength="77" x="202" y="95.9268">-m_spNextState</text><text fill="#000000" font-family="sans-serif" font-size="11" lengthAdjust="spacing" textLength="61" x="202" y="109.7627">-m_spState1</text><text fill="#000000" font-family="sans-serif" font-size="11" lengthAdjust="spacing" textLength="61" x="202" y="123.5986">-m_spState2</text><text fill="#000000" font-family="sans-serif" font-size="11" lengthAdjust="spacing" textLength="61" x="202" y="137.4346">-m_spState3</text><text fill="#000000" font-family="sans-serif" font-size="11" lengthAdjust="spacing" textLength="61" x="202" y="151.2705">-m_spState4</text><line style="stroke:#383838;stroke-width:1.5;" x1="197" x2="307" y1="157.6875" y2="157.6875"/><text fill="#000000" font-family="sans-serif" font-size="11" lengthAdjust="spacing" textLength="54" x="202" y="173.1064">+RunSTM()</text><!--MD5=[983d8c7b25d045203448862946b7deeb]
class cState--><rect codeLine="33" fill="#F8F8F8" filter="url(#ffrjzjwrd09sx)" height="172.5234" id="cState" style="stroke:#383838;stroke-width:1.5;" width="139" x="357.5" y="258"/><ellipse cx="405.75" cy="274" fill="#C2C2C2" rx="11" ry="11" style="stroke:#383838;stroke-width:1.0;"/><path d="M408.5156,269.875 Q408.6719,269.6563 408.8594,269.5469 Q409.0469,269.4375 409.2656,269.4375 Q409.6406,269.4375 409.875,269.7031 Q410.1094,269.9531 410.1094,270.5625 L410.1094,272.0156 Q410.1094,272.625 409.875,272.8906 Q409.6406,273.1563 409.2656,273.1563 Q408.9219,273.1563 408.7188,272.9531 Q408.5156,272.7656 408.4063,272.25 Q408.3594,271.8906 408.1719,271.7031 Q407.8438,271.3281 407.2344,271.1094 Q406.625,270.8906 406,270.8906 Q405.2344,270.8906 404.5938,271.2188 Q403.9688,271.5469 403.4688,272.2969 Q402.9844,273.0469 402.9844,274.0781 L402.9844,275.1719 Q402.9844,276.4063 403.875,277.2344 Q404.7656,278.0469 406.3594,278.0469 Q407.2969,278.0469 407.9531,277.7969 Q408.3438,277.6406 408.7656,277.2031 Q409.0313,276.9375 409.1719,276.8594 Q409.3281,276.7813 409.5313,276.7813 Q409.8594,276.7813 410.1094,277.0469 Q410.375,277.2969 410.375,277.6406 Q410.375,277.9844 410.0313,278.3906 Q409.5313,278.9688 408.7344,279.2969 Q407.6563,279.75 406.3594,279.75 Q404.8438,279.75 403.6406,279.125 Q402.6563,278.625 401.9688,277.5625 Q401.2813,276.4844 401.2813,275.2031 L401.2813,274.0469 Q401.2813,272.7188 401.8906,271.5781 Q402.5156,270.4219 403.6094,269.8125 Q404.7031,269.1875 405.9375,269.1875 Q406.6719,269.1875 407.3125,269.3594 Q407.9688,269.5156 408.5156,269.875 Z " fill="#000000"/><text fill="#000000" font-family="sans-serif" font-size="12" lengthAdjust="spacing" textLength="34" x="426.25" y="278.9102">cState</text><line style="stroke:#383838;stroke-width:1.5;" x1="358.5" x2="495.5" y1="290" y2="290"/><text fill="#000000" font-family="sans-serif" font-size="11" lengthAdjust="spacing" textLength="54" x="363.5" y="305.4189">#m_spData</text><text fill="#000000" font-family="sans-serif" font-size="11" lengthAdjust="spacing" textLength="63" x="363.5" y="319.2549">#m_spStatus</text><text fill="#000000" font-family="sans-serif" font-size="11" lengthAdjust="spacing" textLength="125" x="363.5" y="333.0908">#m_spPossibleNextStates</text><text fill="#000000" font-family="sans-serif" font-size="11" lengthAdjust="spacing" textLength="79" x="363.5" y="346.9268">#m_spNextState</text><line style="stroke:#383838;stroke-width:1.5;" x1="358.5" x2="495.5" y1="353.3438" y2="353.3438"/><text fill="#000000" font-family="sans-serif" font-size="11" lengthAdjust="spacing" textLength="127" x="363.5" y="368.7627">+AddPossibleNextStates()</text><text fill="#000000" font-family="sans-serif" font-size="11" lengthAdjust="spacing" textLength="93" x="363.5" y="382.5986">+ReturnNextState()</text><text fill="#000000" font-family="sans-serif" font-size="11" font-style="italic" lengthAdjust="spacing" textLength="104" x="363.5" y="396.4346">+ExecuteStateTask()</text><text fill="#000000" font-family="sans-serif" font-size="11" lengthAdjust="spacing" textLength="85" x="363.5" y="410.2705">+SetDataPointer()</text><text fill="#000000" font-family="sans-serif" font-size="11" lengthAdjust="spacing" textLength="94" x="363.5" y="424.1064">+SetStatusPointer()</text><!--MD5=[f7c77f70d1622a072d2b2588b0a2ebc2]
class cState1--><rect codeLine="44" fill="#F8F8F8" filter="url(#ffrjzjwrd09sx)" height="61.8359" id="cState1" style="stroke:#383838;stroke-width:1.5;" width="113" x="310.5" y="492"/><ellipse cx="343.5" cy="508" fill="#C2C2C2" rx="11" ry="11" style="stroke:#383838;stroke-width:1.0;"/><path d="M346.2656,503.875 Q346.4219,503.6563 346.6094,503.5469 Q346.7969,503.4375 347.0156,503.4375 Q347.3906,503.4375 347.625,503.7031 Q347.8594,503.9531 347.8594,504.5625 L347.8594,506.0156 Q347.8594,506.625 347.625,506.8906 Q347.3906,507.1563 347.0156,507.1563 Q346.6719,507.1563 346.4688,506.9531 Q346.2656,506.7656 346.1563,506.25 Q346.1094,505.8906 345.9219,505.7031 Q345.5938,505.3281 344.9844,505.1094 Q344.375,504.8906 343.75,504.8906 Q342.9844,504.8906 342.3438,505.2188 Q341.7188,505.5469 341.2188,506.2969 Q340.7344,507.0469 340.7344,508.0781 L340.7344,509.1719 Q340.7344,510.4063 341.625,511.2344 Q342.5156,512.0469 344.1094,512.0469 Q345.0469,512.0469 345.7031,511.7969 Q346.0938,511.6406 346.5156,511.2031 Q346.7813,510.9375 346.9219,510.8594 Q347.0781,510.7813 347.2813,510.7813 Q347.6094,510.7813 347.8594,511.0469 Q348.125,511.2969 348.125,511.6406 Q348.125,511.9844 347.7813,512.3906 Q347.2813,512.9688 346.4844,513.2969 Q345.4063,513.75 344.1094,513.75 Q342.5938,513.75 341.3906,513.125 Q340.4063,512.625 339.7188,511.5625 Q339.0313,510.4844 339.0313,509.2031 L339.0313,508.0469 Q339.0313,506.7188 339.6406,505.5781 Q340.2656,504.4219 341.3594,503.8125 Q342.4531,503.1875 343.6875,503.1875 Q344.4219,503.1875 345.0625,503.3594 Q345.7188,503.5156 346.2656,503.875 Z " fill="#000000"/><text fill="#000000" font-family="sans-serif" font-size="12" lengthAdjust="spacing" textLength="41" x="361.5" y="512.9102">cState1</text><line style="stroke:#383838;stroke-width:1.5;" x1="311.5" x2="422.5" y1="524" y2="524"/><line style="stroke:#383838;stroke-width:1.5;" x1="311.5" x2="422.5" y1="532" y2="532"/><text fill="#000000" font-family="sans-serif" font-size="11" lengthAdjust="spacing" textLength="101" x="316.5" y="547.4189">+ExecuteStateTask()</text><!--MD5=[62e225536b7ec6285693c91a7a22f83e]
class cState2--><rect codeLine="47" fill="#F8F8F8" filter="url(#ffrjzjwrd09sx)" height="61.8359" id="cState2" style="stroke:#383838;stroke-width:1.5;" width="113" x="162.5" y="492"/><ellipse cx="195.5" cy="508" fill="#C2C2C2" rx="11" ry="11" style="stroke:#383838;stroke-width:1.0;"/><path d="M198.2656,503.875 Q198.4219,503.6563 198.6094,503.5469 Q198.7969,503.4375 199.0156,503.4375 Q199.3906,503.4375 199.625,503.7031 Q199.8594,503.9531 199.8594,504.5625 L199.8594,506.0156 Q199.8594,506.625 199.625,506.8906 Q199.3906,507.1563 199.0156,507.1563 Q198.6719,507.1563 198.4688,506.9531 Q198.2656,506.7656 198.1563,506.25 Q198.1094,505.8906 197.9219,505.7031 Q197.5938,505.3281 196.9844,505.1094 Q196.375,504.8906 195.75,504.8906 Q194.9844,504.8906 194.3438,505.2188 Q193.7188,505.5469 193.2188,506.2969 Q192.7344,507.0469 192.7344,508.0781 L192.7344,509.1719 Q192.7344,510.4063 193.625,511.2344 Q194.5156,512.0469 196.1094,512.0469 Q197.0469,512.0469 197.7031,511.7969 Q198.0938,511.6406 198.5156,511.2031 Q198.7813,510.9375 198.9219,510.8594 Q199.0781,510.7813 199.2813,510.7813 Q199.6094,510.7813 199.8594,511.0469 Q200.125,511.2969 200.125,511.6406 Q200.125,511.9844 199.7813,512.3906 Q199.2813,512.9688 198.4844,513.2969 Q197.4063,513.75 196.1094,513.75 Q194.5938,513.75 193.3906,513.125 Q192.4063,512.625 191.7188,511.5625 Q191.0313,510.4844 191.0313,509.2031 L191.0313,508.0469 Q191.0313,506.7188 191.6406,505.5781 Q192.2656,504.4219 193.3594,503.8125 Q194.4531,503.1875 195.6875,503.1875 Q196.4219,503.1875 197.0625,503.3594 Q197.7188,503.5156 198.2656,503.875 Z " fill="#000000"/><text fill="#000000" font-family="sans-serif" font-size="12" lengthAdjust="spacing" textLength="41" x="213.5" y="512.9102">cState2</text><line style="stroke:#383838;stroke-width:1.5;" x1="163.5" x2="274.5" y1="524" y2="524"/><line style="stroke:#383838;stroke-width:1.5;" x1="163.5" x2="274.5" y1="532" y2="532"/><text fill="#000000" font-family="sans-serif" font-size="11" lengthAdjust="spacing" textLength="101" x="168.5" y="547.4189">+ExecuteStateTask()</text><!--MD5=[399d85a93cb61fa86aac73ce5c35ce3d]
class cState3--><rect codeLine="50" fill="#F8F8F8" filter="url(#ffrjzjwrd09sx)" height="61.8359" id="cState3" style="stroke:#383838;stroke-width:1.5;" width="113" x="606.5" y="492"/><ellipse cx="639.5" cy="508" fill="#C2C2C2" rx="11" ry="11" style="stroke:#383838;stroke-width:1.0;"/><path d="M642.2656,503.875 Q642.4219,503.6563 642.6094,503.5469 Q642.7969,503.4375 643.0156,503.4375 Q643.3906,503.4375 643.625,503.7031 Q643.8594,503.9531 643.8594,504.5625 L643.8594,506.0156 Q643.8594,506.625 643.625,506.8906 Q643.3906,507.1563 643.0156,507.1563 Q642.6719,507.1563 642.4688,506.9531 Q642.2656,506.7656 642.1563,506.25 Q642.1094,505.8906 641.9219,505.7031 Q641.5938,505.3281 640.9844,505.1094 Q640.375,504.8906 639.75,504.8906 Q638.9844,504.8906 638.3438,505.2188 Q637.7188,505.5469 637.2188,506.2969 Q636.7344,507.0469 636.7344,508.0781 L636.7344,509.1719 Q636.7344,510.4063 637.625,511.2344 Q638.5156,512.0469 640.1094,512.0469 Q641.0469,512.0469 641.7031,511.7969 Q642.0938,511.6406 642.5156,511.2031 Q642.7813,510.9375 642.9219,510.8594 Q643.0781,510.7813 643.2813,510.7813 Q643.6094,510.7813 643.8594,511.0469 Q644.125,511.2969 644.125,511.6406 Q644.125,511.9844 643.7813,512.3906 Q643.2813,512.9688 642.4844,513.2969 Q641.4063,513.75 640.1094,513.75 Q638.5938,513.75 637.3906,513.125 Q636.4063,512.625 635.7188,511.5625 Q635.0313,510.4844 635.0313,509.2031 L635.0313,508.0469 Q635.0313,506.7188 635.6406,505.5781 Q636.2656,504.4219 637.3594,503.8125 Q638.4531,503.1875 639.6875,503.1875 Q640.4219,503.1875 641.0625,503.3594 Q641.7188,503.5156 642.2656,503.875 Z " fill="#000000"/><text fill="#000000" font-family="sans-serif" font-size="12" lengthAdjust="spacing" textLength="41" x="657.5" y="512.9102">cState3</text><line style="stroke:#383838;stroke-width:1.5;" x1="607.5" x2="718.5" y1="524" y2="524"/><line style="stroke:#383838;stroke-width:1.5;" x1="607.5" x2="718.5" y1="532" y2="532"/><text fill="#000000" font-family="sans-serif" font-size="11" lengthAdjust="spacing" textLength="101" x="612.5" y="547.4189">+ExecuteStateTask()</text><!--MD5=[7bef229741993ff3e6371443dff07e4b]
class cState4--><rect codeLine="53" fill="#F8F8F8" filter="url(#ffrjzjwrd09sx)" height="61.8359" id="cState4" style="stroke:#383838;stroke-width:1.5;" width="113" x="458.5" y="492"/><ellipse cx="491.5" cy="508" fill="#C2C2C2" rx="11" ry="11" style="stroke:#383838;stroke-width:1.0;"/><path d="M494.2656,503.875 Q494.4219,503.6563 494.6094,503.5469 Q494.7969,503.4375 495.0156,503.4375 Q495.3906,503.4375 495.625,503.7031 Q495.8594,503.9531 495.8594,504.5625 L495.8594,506.0156 Q495.8594,506.625 495.625,506.8906 Q495.3906,507.1563 495.0156,507.1563 Q494.6719,507.1563 494.4688,506.9531 Q494.2656,506.7656 494.1563,506.25 Q494.1094,505.8906 493.9219,505.7031 Q493.5938,505.3281 492.9844,505.1094 Q492.375,504.8906 491.75,504.8906 Q490.9844,504.8906 490.3438,505.2188 Q489.7188,505.5469 489.2188,506.2969 Q488.7344,507.0469 488.7344,508.0781 L488.7344,509.1719 Q488.7344,510.4063 489.625,511.2344 Q490.5156,512.0469 492.1094,512.0469 Q493.0469,512.0469 493.7031,511.7969 Q494.0938,511.6406 494.5156,511.2031 Q494.7813,510.9375 494.9219,510.8594 Q495.0781,510.7813 495.2813,510.7813 Q495.6094,510.7813 495.8594,511.0469 Q496.125,511.2969 496.125,511.6406 Q496.125,511.9844 495.7813,512.3906 Q495.2813,512.9688 494.4844,513.2969 Q493.4063,513.75 492.1094,513.75 Q490.5938,513.75 489.3906,513.125 Q488.4063,512.625 487.7188,511.5625 Q487.0313,510.4844 487.0313,509.2031 L487.0313,508.0469 Q487.0313,506.7188 487.6406,505.5781 Q488.2656,504.4219 489.3594,503.8125 Q490.4531,503.1875 491.6875,503.1875 Q492.4219,503.1875 493.0625,503.3594 Q493.7188,503.5156 494.2656,503.875 Z " fill="#000000"/><text fill="#000000" font-family="sans-serif" font-size="12" lengthAdjust="spacing" textLength="41" x="509.5" y="512.9102">cState4</text><line style="stroke:#383838;stroke-width:1.5;" x1="459.5" x2="570.5" y1="524" y2="524"/><line style="stroke:#383838;stroke-width:1.5;" x1="459.5" x2="570.5" y1="532" y2="532"/><text fill="#000000" font-family="sans-serif" font-size="11" lengthAdjust="spacing" textLength="101" x="464.5" y="547.4189">+ExecuteStateTask()</text><!--MD5=[4ab9ddb056412144d037f7179aff0986]
reverse link cState to cState1--><path codeLine="57" d="M391.4,450.23 C386.24,465.4 381.32,479.89 377.26,491.83 " fill="none" id="cState-backto-cState1" style="stroke:#383838;stroke-width:1.0;"/><polygon fill="none" points="384.81,447.85,397.88,431.16,398.07,452.35,384.81,447.85" style="stroke:#383838;stroke-width:1.0;"/><!--MD5=[af28e41df2f40d282351cbe274e3426e]
reverse link cState to cState2--><path codeLine="58" d="M342.19,417.46 C311.6,443.42 278.71,471.33 254.62,491.78 " fill="none" id="cState-backto-cState2" style="stroke:#383838;stroke-width:1.0;"/><polygon fill="none" points="337.67,412.12,357.45,404.52,346.73,422.79,337.67,412.12" style="stroke:#383838;stroke-width:1.0;"/><!--MD5=[93e7a49115042e345d269a1234a2305e]
reverse link cState to cState3--><path codeLine="59" d="M512.58,409.5 C550.17,437.61 592.52,469.29 622.68,491.85 " fill="none" id="cState-backto-cState3" style="stroke:#383838;stroke-width:1.0;"/><polygon fill="none" points="508.36,415.09,496.53,397.5,516.74,403.87,508.36,415.09" style="stroke:#383838;stroke-width:1.0;"/><!--MD5=[37167396fa7671a7c87693b99d6ca67b]
reverse link cState to cState4--><path codeLine="60" d="M478.71,449.22 C486.46,464.75 493.87,479.62 499.96,491.83 " fill="none" id="cState-backto-cState4" style="stroke:#383838;stroke-width:1.0;"/><polygon fill="none" points="472.37,452.19,469.71,431.16,484.9,445.94,472.37,452.19" style="stroke:#383838;stroke-width:1.0;"/><!--MD5=[c6b032348938e01b04ad8bbe515e2f2c]
reverse link cStateMachine to cState1--><path codeLine="63" d="M276.33,193.06 C293.39,260.99 317.15,353.23 340,434 C345.48,453.38 352.11,475 357.42,491.96 " fill="none" id="cStateMachine-backto-cState1" style="stroke:#383838;stroke-width:1.0;"/><polygon fill="#383838" points="273.11,180.24,270.6937,187.0342,276.0359,191.8778,278.4522,185.0836,273.11,180.24" style="stroke:#383838;stroke-width:1.0;"/><!--MD5=[b54cd30efdc157def7b540b1112e9898]
reverse link cStateMachine to cState2--><path codeLine="64" d="M244.38,193.24 C236.94,289.63 226.07,430.47 221.34,491.7 " fill="none" id="cStateMachine-backto-cState2" style="stroke:#383838;stroke-width:1.0;"/><polygon fill="#383838" points="245.38,180.24,240.9306,185.9148,244.4576,192.2045,248.907,186.5297,245.38,180.24" style="stroke:#383838;stroke-width:1.0;"/><!--MD5=[2873c72df70e71ead023fb5709ae5579]
reverse link cStateMachine to cState3--><path codeLine="65" d="M320.52,115.64 C375.45,134.71 452.73,166.46 511,210 C606.33,281.23 645.04,428.25 657.75,491.73 " fill="none" id="cStateMachine-backto-cState3" style="stroke:#383838;stroke-width:1.0;"/><polygon fill="#383838" points="308.1,111.41,312.4855,117.1343,319.4562,115.2877,315.0707,109.5635,308.1,111.41" style="stroke:#383838;stroke-width:1.0;"/><!--MD5=[669327bbfda13ee473506ddef4d7c6ee]
reverse link cStateMachine to cState4--><path codeLine="66" d="M320.65,115.87 C383.57,139.53 472.98,184.39 514,258 C555.94,333.27 536.82,440.37 523.7,491.95 " fill="none" id="cStateMachine-backto-cState4" style="stroke:#383838;stroke-width:1.0;"/><polygon fill="#383838" points="308.05,111.28,312.3212,117.09,319.3271,115.382,315.0559,109.5719,308.05,111.28" style="stroke:#383838;stroke-width:1.0;"/><!--MD5=[0ce4d1789d4f795a3892e8bdcfd2df1b]
link cStateMachine to cState--><path codeLine="68" d="M308.09,174.31 C325.84,199.56 345.57,227.64 363.78,253.55 " fill="none" id="cStateMachine-to-cState" style="stroke:#383838;stroke-width:1.0;stroke-dasharray:7.0,7.0;"/><polygon fill="#383838" points="366.69,257.69,364.8035,248.0235,363.8217,253.5945,358.2507,252.6127,366.69,257.69" style="stroke:#383838;stroke-width:1.0;"/><text fill="#000000" font-family="sans-serif" font-size="13" lengthAdjust="spacing" textLength="42" x="346" y="224.4951">«uses»</text><!--MD5=[5605ccc92c368e89274666321c7084dc]
link cData to cStatus--><!--MD5=[c5ae5d57717f009ba14d005486edcc60]
reverse link cStateMachine to cData--><path codeLine="71" d="M183.13,126.16 C175.79,127.22 168.45,127.51 161.11,127.02 " fill="none" id="cStateMachine-backto-cData" style="stroke:#383838;stroke-width:1.0;"/><polygon fill="#FFFFFF" points="195.9,123.53,189.215,120.8261,184.148,125.9569,190.833,128.6608,195.9,123.53" style="stroke:#383838;stroke-width:1.0;"/><!--MD5=[39cd5b603242402a7883a405e5706c05]
link cStateMachine to cData--><!--MD5=[30cd1439f9ce1fbbb904b0ebc6530236]
reverse link cStateMachine to cStatus--><path codeLine="72" d="M188.31,173.06 C164.64,207.11 138.91,246.48 119.27,278.81 " fill="none" id="cStateMachine-backto-cStatus" style="stroke:#383838;stroke-width:1.0;"/><polygon fill="#FFFFFF" points="195.91,162.21,189.1911,164.8285,189.024,172.0377,195.7429,169.4192,195.91,162.21" style="stroke:#383838;stroke-width:1.0;"/><!--MD5=[b514f7bf3826c49e92b4fa99fec1b700]
link cStateMachine to cStatus--><!--MD5=[d56c54c886b72f47dde183be0529f6d0]
@startuml

skinparam monochrome true
skinparam classAttributeIconSize 0

together dataAndStatusGroup{
    class cData{
        +m_vGuestBook
        +bChangeState = true
        +nPreviousRandomNumber=1
    }

    class cStatus{
        +SetStatus()
        +SetStatusMessage()
        +GetStatus()
        +GetStatusMessage()
        -m_bExecutionStatus = true
        -m_spExecMessage
    }
}
class cStateMachine{
    -m_spData
    -m_spStatus
    -m_spActualState
    -m_spNextState
    -m_spState1
    -m_spState2
    -m_spState3
    -m_spState4
    +RunSTM()
}

class cState{
    #m_spData
    #m_spStatus
    #m_spPossibleNextStates
    #m_spNextState
    +AddPossibleNextStates()
    +ReturnNextState()
    {abstract}+ExecuteStateTask()
    +SetDataPointer()
    +SetStatusPointer()
}
class cState1{
    +ExecuteStateTask()
}
class cState2{
    +ExecuteStateTask()
}
class cState3{
    +ExecuteStateTask()
}
class cState4{
    +ExecuteStateTask()
}

cState <|- - cState1
cState <|- - cState2
cState <|- - cState3
cState <|- - cState4


cStateMachine *- - cState1
cStateMachine *- - cState2
cStateMachine *- - cState3
cStateMachine *- - cState4

cStateMachine ..> cState:<<uses>>

cData -[hidden]down- cStatus
cStateMachine o- - cData
cStateMachine o- - cStatus

cStateMachine -[hidden]right- - cData
cStateMachine -[hidden]right- - cStatus
@enduml

PlantUML version 1.2021.00(Sun Jan 10 11:25:05 CET 2021)
(GPL source distribution)
Java Runtime: Java(TM) SE Runtime Environment
JVM: Java HotSpot(TM) 64-Bit Server VM
Default Encoding: Cp1252
Language: de
Country: DE
--></g></svg>