<?xml version="1.0" encoding="UTF-8" standalone="no"?><svg xmlns="http://www.w3.org/2000/svg" xmlns:xlink="http://www.w3.org/1999/xlink" contentScriptType="application/ecmascript" contentStyleType="text/css" height="567px" preserveAspectRatio="none" style="width:731px;height:567px;" version="1.1" viewBox="0 0 731 567" width="731px" zoomAndPan="magnify"><defs><filter height="300%" id="f1qdvco4xafh4q" width="300%" x="-1" y="-1"><feGaussianBlur result="blurOut" stdDeviation="2.0"/><feColorMatrix in="blurOut" result="blurOut2" type="matrix" values="0 0 0 0 0 0 0 0 0 0 0 0 0 0 0 0 0 0 .4 0"/><feOffset dx="4.0" dy="4.0" in="blurOut2" result="blurOut3"/><feBlend in="SourceGraphic" in2="blurOut3" mode="normal"/></filter></defs><g><!--MD5=[e5cb729776681896271596c23c31c76c]
cluster dataAndStatusGroup--><!--MD5=[60c9ed31c535bee25c55ce21b5b01399]
class Data--><rect codeLine="6" fill="#F8F8F8" filter="url(#f1qdvco4xafh4q)" height="89.5078" id="Data" style="stroke:#383838;stroke-width:1.5;" width="154" x="7" y="48.5"/><ellipse cx="66.75" cy="64.5" fill="#C2C2C2" rx="11" ry="11" style="stroke:#383838;stroke-width:1.0;"/><path d="M69.5156,60.375 Q69.6719,60.1563 69.8594,60.0469 Q70.0469,59.9375 70.2656,59.9375 Q70.6406,59.9375 70.875,60.2031 Q71.1094,60.4531 71.1094,61.0625 L71.1094,62.5156 Q71.1094,63.125 70.875,63.3906 Q70.6406,63.6563 70.2656,63.6563 Q69.9219,63.6563 69.7188,63.4531 Q69.5156,63.2656 69.4063,62.75 Q69.3594,62.3906 69.1719,62.2031 Q68.8438,61.8281 68.2344,61.6094 Q67.625,61.3906 67,61.3906 Q66.2344,61.3906 65.5938,61.7188 Q64.9688,62.0469 64.4688,62.7969 Q63.9844,63.5469 63.9844,64.5781 L63.9844,65.6719 Q63.9844,66.9063 64.875,67.7344 Q65.7656,68.5469 67.3594,68.5469 Q68.2969,68.5469 68.9531,68.2969 Q69.3438,68.1406 69.7656,67.7031 Q70.0313,67.4375 70.1719,67.3594 Q70.3281,67.2813 70.5313,67.2813 Q70.8594,67.2813 71.1094,67.5469 Q71.375,67.7969 71.375,68.1406 Q71.375,68.4844 71.0313,68.8906 Q70.5313,69.4688 69.7344,69.7969 Q68.6563,70.25 67.3594,70.25 Q65.8438,70.25 64.6406,69.625 Q63.6563,69.125 62.9688,68.0625 Q62.2813,66.9844 62.2813,65.7031 L62.2813,64.5469 Q62.2813,63.2188 62.8906,62.0781 Q63.5156,60.9219 64.6094,60.3125 Q65.7031,59.6875 66.9375,59.6875 Q67.6719,59.6875 68.3125,59.8594 Q68.9688,60.0156 69.5156,60.375 Z " fill="#000000"/><text fill="#000000" font-family="sans-serif" font-size="12" lengthAdjust="spacing" textLength="26" x="87.25" y="69.4102">Data</text><line style="stroke:#383838;stroke-width:1.5;" x1="8" x2="160" y1="80.5" y2="80.5"/><text fill="#000000" font-family="sans-serif" font-size="11" lengthAdjust="spacing" textLength="71" x="13" y="95.9189">+vGuestBook[]</text><text fill="#000000" font-family="sans-serif" font-size="11" lengthAdjust="spacing" textLength="105" x="13" y="109.7549">+bChangeState = true</text><text fill="#000000" font-family="sans-serif" font-size="11" lengthAdjust="spacing" textLength="142" x="13" y="123.5908">+nPreviousRandomNumber=1</text><line style="stroke:#383838;stroke-width:1.5;" x1="8" x2="160" y1="130.0078" y2="130.0078"/><!--MD5=[e3d83ec5fd90ea9f3f2bfe265cb53458]
class Status--><rect codeLine="12" fill="#F8F8F8" filter="url(#f1qdvco4xafh4q)" height="131.0156" id="Status" style="stroke:#383838;stroke-width:1.5;" width="131" x="29.5" y="279"/><ellipse cx="73.3" cy="295" fill="#C2C2C2" rx="11" ry="11" style="stroke:#383838;stroke-width:1.0;"/><path d="M76.0656,290.875 Q76.2219,290.6563 76.4094,290.5469 Q76.5969,290.4375 76.8156,290.4375 Q77.1906,290.4375 77.425,290.7031 Q77.6594,290.9531 77.6594,291.5625 L77.6594,293.0156 Q77.6594,293.625 77.425,293.8906 Q77.1906,294.1563 76.8156,294.1563 Q76.4719,294.1563 76.2688,293.9531 Q76.0656,293.7656 75.9563,293.25 Q75.9094,292.8906 75.7219,292.7031 Q75.3938,292.3281 74.7844,292.1094 Q74.175,291.8906 73.55,291.8906 Q72.7844,291.8906 72.1438,292.2188 Q71.5188,292.5469 71.0188,293.2969 Q70.5344,294.0469 70.5344,295.0781 L70.5344,296.1719 Q70.5344,297.4063 71.425,298.2344 Q72.3156,299.0469 73.9094,299.0469 Q74.8469,299.0469 75.5031,298.7969 Q75.8938,298.6406 76.3156,298.2031 Q76.5813,297.9375 76.7219,297.8594 Q76.8781,297.7813 77.0813,297.7813 Q77.4094,297.7813 77.6594,298.0469 Q77.925,298.2969 77.925,298.6406 Q77.925,298.9844 77.5813,299.3906 Q77.0813,299.9688 76.2844,300.2969 Q75.2063,300.75 73.9094,300.75 Q72.3938,300.75 71.1906,300.125 Q70.2063,299.625 69.5188,298.5625 Q68.8313,297.4844 68.8313,296.2031 L68.8313,295.0469 Q68.8313,293.7188 69.4406,292.5781 Q70.0656,291.4219 71.1594,290.8125 Q72.2531,290.1875 73.4875,290.1875 Q74.2219,290.1875 74.8625,290.3594 Q75.5188,290.5156 76.0656,290.875 Z " fill="#000000"/><text fill="#000000" font-family="sans-serif" font-size="12" lengthAdjust="spacing" textLength="35" x="93.7" y="299.9102">Status</text><line style="stroke:#383838;stroke-width:1.5;" x1="30.5" x2="159.5" y1="311" y2="311"/><text fill="#000000" font-family="sans-serif" font-size="11" lengthAdjust="spacing" textLength="119" x="35.5" y="326.4189">-bExecutionStatus = true</text><text fill="#000000" font-family="sans-serif" font-size="11" lengthAdjust="spacing" textLength="84" x="35.5" y="340.2549">-spExecMessage</text><line style="stroke:#383838;stroke-width:1.5;" x1="30.5" x2="159.5" y1="346.6719" y2="346.6719"/><text fill="#000000" font-family="sans-serif" font-size="11" lengthAdjust="spacing" textLength="60" x="35.5" y="362.0908">+setStatus()</text><text fill="#000000" font-family="sans-serif" font-size="11" lengthAdjust="spacing" textLength="104" x="35.5" y="375.9268">+setStatusMessage()</text><text fill="#000000" font-family="sans-serif" font-size="11" lengthAdjust="spacing" textLength="60" x="35.5" y="389.7627">+getStatus()</text><text fill="#000000" font-family="sans-serif" font-size="11" lengthAdjust="spacing" textLength="104" x="35.5" y="403.5986">+getStatusMessage()</text><!--MD5=[3626c233e602113c8cf5977cfac9c02f]
class StateMachine--><rect codeLine="21" fill="#F8F8F8" filter="url(#f1qdvco4xafh4q)" height="172.5234" id="StateMachine" style="stroke:#383838;stroke-width:1.5;" width="106" x="196" y="7"/><ellipse cx="211" cy="23" fill="#C2C2C2" rx="11" ry="11" style="stroke:#383838;stroke-width:1.0;"/><path d="M213.7656,18.875 Q213.9219,18.6563 214.1094,18.5469 Q214.2969,18.4375 214.5156,18.4375 Q214.8906,18.4375 215.125,18.7031 Q215.3594,18.9531 215.3594,19.5625 L215.3594,21.0156 Q215.3594,21.625 215.125,21.8906 Q214.8906,22.1563 214.5156,22.1563 Q214.1719,22.1563 213.9688,21.9531 Q213.7656,21.7656 213.6563,21.25 Q213.6094,20.8906 213.4219,20.7031 Q213.0938,20.3281 212.4844,20.1094 Q211.875,19.8906 211.25,19.8906 Q210.4844,19.8906 209.8438,20.2188 Q209.2188,20.5469 208.7188,21.2969 Q208.2344,22.0469 208.2344,23.0781 L208.2344,24.1719 Q208.2344,25.4063 209.125,26.2344 Q210.0156,27.0469 211.6094,27.0469 Q212.5469,27.0469 213.2031,26.7969 Q213.5938,26.6406 214.0156,26.2031 Q214.2813,25.9375 214.4219,25.8594 Q214.5781,25.7813 214.7813,25.7813 Q215.1094,25.7813 215.3594,26.0469 Q215.625,26.2969 215.625,26.6406 Q215.625,26.9844 215.2813,27.3906 Q214.7813,27.9688 213.9844,28.2969 Q212.9063,28.75 211.6094,28.75 Q210.0938,28.75 208.8906,28.125 Q207.9063,27.625 207.2188,26.5625 Q206.5313,25.4844 206.5313,24.2031 L206.5313,23.0469 Q206.5313,21.7188 207.1406,20.5781 Q207.7656,19.4219 208.8594,18.8125 Q209.9531,18.1875 211.1875,18.1875 Q211.9219,18.1875 212.5625,18.3594 Q213.2188,18.5156 213.7656,18.875 Z " fill="#000000"/><text fill="#000000" font-family="sans-serif" font-size="12" lengthAdjust="spacing" textLength="74" x="225" y="27.9102">StateMachine</text><line style="stroke:#383838;stroke-width:1.5;" x1="197" x2="301" y1="39" y2="39"/><text fill="#000000" font-family="sans-serif" font-size="11" lengthAdjust="spacing" textLength="38" x="202" y="54.4189">-spData</text><text fill="#000000" font-family="sans-serif" font-size="11" lengthAdjust="spacing" textLength="47" x="202" y="68.2549">-spStatus</text><text fill="#000000" font-family="sans-serif" font-size="11" lengthAdjust="spacing" textLength="72" x="202" y="82.0908">-spActualState</text><text fill="#000000" font-family="sans-serif" font-size="11" lengthAdjust="spacing" textLength="63" x="202" y="95.9268">-spNextState</text><text fill="#000000" font-family="sans-serif" font-size="11" lengthAdjust="spacing" textLength="47" x="202" y="109.7627">-spState1</text><text fill="#000000" font-family="sans-serif" font-size="11" lengthAdjust="spacing" textLength="47" x="202" y="123.5986">-spState2</text><text fill="#000000" font-family="sans-serif" font-size="11" lengthAdjust="spacing" textLength="47" x="202" y="137.4346">-spState3</text><text fill="#000000" font-family="sans-serif" font-size="11" lengthAdjust="spacing" textLength="47" x="202" y="151.2705">-spState4</text><line style="stroke:#383838;stroke-width:1.5;" x1="197" x2="301" y1="157.6875" y2="157.6875"/><text fill="#000000" font-family="sans-serif" font-size="11" lengthAdjust="spacing" textLength="51" x="202" y="173.1064">+runSTM()</text><!--MD5=[60d6b92408f98aed8df94d5c6e04aa63]
class State--><rect codeLine="33" fill="#F8F8F8" filter="url(#f1qdvco4xafh4q)" height="172.5234" id="State" style="stroke:#383838;stroke-width:1.5;" width="137" x="355.5" y="258"/><ellipse cx="405.75" cy="274" fill="#C2C2C2" rx="11" ry="11" style="stroke:#383838;stroke-width:1.0;"/><path d="M408.5156,269.875 Q408.6719,269.6563 408.8594,269.5469 Q409.0469,269.4375 409.2656,269.4375 Q409.6406,269.4375 409.875,269.7031 Q410.1094,269.9531 410.1094,270.5625 L410.1094,272.0156 Q410.1094,272.625 409.875,272.8906 Q409.6406,273.1563 409.2656,273.1563 Q408.9219,273.1563 408.7188,272.9531 Q408.5156,272.7656 408.4063,272.25 Q408.3594,271.8906 408.1719,271.7031 Q407.8438,271.3281 407.2344,271.1094 Q406.625,270.8906 406,270.8906 Q405.2344,270.8906 404.5938,271.2188 Q403.9688,271.5469 403.4688,272.2969 Q402.9844,273.0469 402.9844,274.0781 L402.9844,275.1719 Q402.9844,276.4063 403.875,277.2344 Q404.7656,278.0469 406.3594,278.0469 Q407.2969,278.0469 407.9531,277.7969 Q408.3438,277.6406 408.7656,277.2031 Q409.0313,276.9375 409.1719,276.8594 Q409.3281,276.7813 409.5313,276.7813 Q409.8594,276.7813 410.1094,277.0469 Q410.375,277.2969 410.375,277.6406 Q410.375,277.9844 410.0313,278.3906 Q409.5313,278.9688 408.7344,279.2969 Q407.6563,279.75 406.3594,279.75 Q404.8438,279.75 403.6406,279.125 Q402.6563,278.625 401.9688,277.5625 Q401.2813,276.4844 401.2813,275.2031 L401.2813,274.0469 Q401.2813,272.7188 401.8906,271.5781 Q402.5156,270.4219 403.6094,269.8125 Q404.7031,269.1875 405.9375,269.1875 Q406.6719,269.1875 407.3125,269.3594 Q407.9688,269.5156 408.5156,269.875 Z " fill="#000000"/><text fill="#000000" font-family="sans-serif" font-size="12" lengthAdjust="spacing" textLength="28" x="426.25" y="278.9102">State</text><line style="stroke:#383838;stroke-width:1.5;" x1="356.5" x2="491.5" y1="290" y2="290"/><text fill="#000000" font-family="sans-serif" font-size="11" lengthAdjust="spacing" textLength="40" x="361.5" y="305.4189">#spData</text><text fill="#000000" font-family="sans-serif" font-size="11" lengthAdjust="spacing" textLength="49" x="361.5" y="319.2549">#spStatus</text><text fill="#000000" font-family="sans-serif" font-size="11" lengthAdjust="spacing" textLength="111" x="361.5" y="333.0908">#spPossibleNextStates</text><text fill="#000000" font-family="sans-serif" font-size="11" lengthAdjust="spacing" textLength="65" x="361.5" y="346.9268">#spNextState</text><line style="stroke:#383838;stroke-width:1.5;" x1="356.5" x2="491.5" y1="353.3438" y2="353.3438"/><text fill="#000000" font-family="sans-serif" font-size="11" lengthAdjust="spacing" textLength="125" x="361.5" y="368.7627">+addPossibleNextStates()</text><text fill="#000000" font-family="sans-serif" font-size="11" lengthAdjust="spacing" textLength="90" x="361.5" y="382.5986">+returnNextState()</text><text fill="#000000" font-family="sans-serif" font-size="11" font-style="italic" lengthAdjust="spacing" textLength="103" x="361.5" y="396.4346">+executeStateTask()</text><text fill="#000000" font-family="sans-serif" font-size="11" lengthAdjust="spacing" textLength="84" x="361.5" y="410.2705">+setDataPointer()</text><text fill="#000000" font-family="sans-serif" font-size="11" lengthAdjust="spacing" textLength="93" x="361.5" y="424.1064">+setStatusPointer()</text><!--MD5=[fea294b58d473e9280cfe4c83798149e]
class State1--><rect codeLine="44" fill="#F8F8F8" filter="url(#f1qdvco4xafh4q)" height="61.8359" id="State1" style="stroke:#383838;stroke-width:1.5;" width="113" x="308.5" y="492"/><ellipse cx="344.2" cy="508" fill="#C2C2C2" rx="11" ry="11" style="stroke:#383838;stroke-width:1.0;"/><path d="M346.9656,503.875 Q347.1219,503.6563 347.3094,503.5469 Q347.4969,503.4375 347.7156,503.4375 Q348.0906,503.4375 348.325,503.7031 Q348.5594,503.9531 348.5594,504.5625 L348.5594,506.0156 Q348.5594,506.625 348.325,506.8906 Q348.0906,507.1563 347.7156,507.1563 Q347.3719,507.1563 347.1688,506.9531 Q346.9656,506.7656 346.8563,506.25 Q346.8094,505.8906 346.6219,505.7031 Q346.2938,505.3281 345.6844,505.1094 Q345.075,504.8906 344.45,504.8906 Q343.6844,504.8906 343.0438,505.2188 Q342.4188,505.5469 341.9188,506.2969 Q341.4344,507.0469 341.4344,508.0781 L341.4344,509.1719 Q341.4344,510.4063 342.325,511.2344 Q343.2156,512.0469 344.8094,512.0469 Q345.7469,512.0469 346.4031,511.7969 Q346.7938,511.6406 347.2156,511.2031 Q347.4813,510.9375 347.6219,510.8594 Q347.7781,510.7813 347.9813,510.7813 Q348.3094,510.7813 348.5594,511.0469 Q348.825,511.2969 348.825,511.6406 Q348.825,511.9844 348.4813,512.3906 Q347.9813,512.9688 347.1844,513.2969 Q346.1063,513.75 344.8094,513.75 Q343.2938,513.75 342.0906,513.125 Q341.1063,512.625 340.4188,511.5625 Q339.7313,510.4844 339.7313,509.2031 L339.7313,508.0469 Q339.7313,506.7188 340.3406,505.5781 Q340.9656,504.4219 342.0594,503.8125 Q343.1531,503.1875 344.3875,503.1875 Q345.1219,503.1875 345.7625,503.3594 Q346.4188,503.5156 346.9656,503.875 Z " fill="#000000"/><text fill="#000000" font-family="sans-serif" font-size="12" lengthAdjust="spacing" textLength="35" x="362.8" y="512.9102">State1</text><line style="stroke:#383838;stroke-width:1.5;" x1="309.5" x2="420.5" y1="524" y2="524"/><line style="stroke:#383838;stroke-width:1.5;" x1="309.5" x2="420.5" y1="532" y2="532"/><text fill="#000000" font-family="sans-serif" font-size="11" lengthAdjust="spacing" textLength="101" x="314.5" y="547.4189">+executeStateTask()</text><!--MD5=[8cc037637095e940935efba53ef29e5a]
class State2--><rect codeLine="47" fill="#F8F8F8" filter="url(#f1qdvco4xafh4q)" height="61.8359" id="State2" style="stroke:#383838;stroke-width:1.5;" width="113" x="160.5" y="492"/><ellipse cx="196.2" cy="508" fill="#C2C2C2" rx="11" ry="11" style="stroke:#383838;stroke-width:1.0;"/><path d="M198.9656,503.875 Q199.1219,503.6563 199.3094,503.5469 Q199.4969,503.4375 199.7156,503.4375 Q200.0906,503.4375 200.325,503.7031 Q200.5594,503.9531 200.5594,504.5625 L200.5594,506.0156 Q200.5594,506.625 200.325,506.8906 Q200.0906,507.1563 199.7156,507.1563 Q199.3719,507.1563 199.1688,506.9531 Q198.9656,506.7656 198.8563,506.25 Q198.8094,505.8906 198.6219,505.7031 Q198.2938,505.3281 197.6844,505.1094 Q197.075,504.8906 196.45,504.8906 Q195.6844,504.8906 195.0438,505.2188 Q194.4188,505.5469 193.9188,506.2969 Q193.4344,507.0469 193.4344,508.0781 L193.4344,509.1719 Q193.4344,510.4063 194.325,511.2344 Q195.2156,512.0469 196.8094,512.0469 Q197.7469,512.0469 198.4031,511.7969 Q198.7938,511.6406 199.2156,511.2031 Q199.4813,510.9375 199.6219,510.8594 Q199.7781,510.7813 199.9813,510.7813 Q200.3094,510.7813 200.5594,511.0469 Q200.825,511.2969 200.825,511.6406 Q200.825,511.9844 200.4813,512.3906 Q199.9813,512.9688 199.1844,513.2969 Q198.1063,513.75 196.8094,513.75 Q195.2938,513.75 194.0906,513.125 Q193.1063,512.625 192.4188,511.5625 Q191.7313,510.4844 191.7313,509.2031 L191.7313,508.0469 Q191.7313,506.7188 192.3406,505.5781 Q192.9656,504.4219 194.0594,503.8125 Q195.1531,503.1875 196.3875,503.1875 Q197.1219,503.1875 197.7625,503.3594 Q198.4188,503.5156 198.9656,503.875 Z " fill="#000000"/><text fill="#000000" font-family="sans-serif" font-size="12" lengthAdjust="spacing" textLength="35" x="214.8" y="512.9102">State2</text><line style="stroke:#383838;stroke-width:1.5;" x1="161.5" x2="272.5" y1="524" y2="524"/><line style="stroke:#383838;stroke-width:1.5;" x1="161.5" x2="272.5" y1="532" y2="532"/><text fill="#000000" font-family="sans-serif" font-size="11" lengthAdjust="spacing" textLength="101" x="166.5" y="547.4189">+executeStateTask()</text><!--MD5=[4eb8b94b51d112d8c70b26f7c75650e7]
class State3--><rect codeLine="50" fill="#F8F8F8" filter="url(#f1qdvco4xafh4q)" height="61.8359" id="State3" style="stroke:#383838;stroke-width:1.5;" width="113" x="604.5" y="492"/><ellipse cx="640.2" cy="508" fill="#C2C2C2" rx="11" ry="11" style="stroke:#383838;stroke-width:1.0;"/><path d="M642.9656,503.875 Q643.1219,503.6563 643.3094,503.5469 Q643.4969,503.4375 643.7156,503.4375 Q644.0906,503.4375 644.325,503.7031 Q644.5594,503.9531 644.5594,504.5625 L644.5594,506.0156 Q644.5594,506.625 644.325,506.8906 Q644.0906,507.1563 643.7156,507.1563 Q643.3719,507.1563 643.1688,506.9531 Q642.9656,506.7656 642.8563,506.25 Q642.8094,505.8906 642.6219,505.7031 Q642.2938,505.3281 641.6844,505.1094 Q641.075,504.8906 640.45,504.8906 Q639.6844,504.8906 639.0438,505.2188 Q638.4188,505.5469 637.9188,506.2969 Q637.4344,507.0469 637.4344,508.0781 L637.4344,509.1719 Q637.4344,510.4063 638.325,511.2344 Q639.2156,512.0469 640.8094,512.0469 Q641.7469,512.0469 642.4031,511.7969 Q642.7938,511.6406 643.2156,511.2031 Q643.4813,510.9375 643.6219,510.8594 Q643.7781,510.7813 643.9813,510.7813 Q644.3094,510.7813 644.5594,511.0469 Q644.825,511.2969 644.825,511.6406 Q644.825,511.9844 644.4813,512.3906 Q643.9813,512.9688 643.1844,513.2969 Q642.1063,513.75 640.8094,513.75 Q639.2938,513.75 638.0906,513.125 Q637.1063,512.625 636.4188,511.5625 Q635.7313,510.4844 635.7313,509.2031 L635.7313,508.0469 Q635.7313,506.7188 636.3406,505.5781 Q636.9656,504.4219 638.0594,503.8125 Q639.1531,503.1875 640.3875,503.1875 Q641.1219,503.1875 641.7625,503.3594 Q642.4188,503.5156 642.9656,503.875 Z " fill="#000000"/><text fill="#000000" font-family="sans-serif" font-size="12" lengthAdjust="spacing" textLength="35" x="658.8" y="512.9102">State3</text><line style="stroke:#383838;stroke-width:1.5;" x1="605.5" x2="716.5" y1="524" y2="524"/><line style="stroke:#383838;stroke-width:1.5;" x1="605.5" x2="716.5" y1="532" y2="532"/><text fill="#000000" font-family="sans-serif" font-size="11" lengthAdjust="spacing" textLength="101" x="610.5" y="547.4189">+executeStateTask()</text><!--MD5=[02e0c6537f9e3f2f31d64057536da69a]
class State4--><rect codeLine="53" fill="#F8F8F8" filter="url(#f1qdvco4xafh4q)" height="61.8359" id="State4" style="stroke:#383838;stroke-width:1.5;" width="113" x="456.5" y="492"/><ellipse cx="492.2" cy="508" fill="#C2C2C2" rx="11" ry="11" style="stroke:#383838;stroke-width:1.0;"/><path d="M494.9656,503.875 Q495.1219,503.6563 495.3094,503.5469 Q495.4969,503.4375 495.7156,503.4375 Q496.0906,503.4375 496.325,503.7031 Q496.5594,503.9531 496.5594,504.5625 L496.5594,506.0156 Q496.5594,506.625 496.325,506.8906 Q496.0906,507.1563 495.7156,507.1563 Q495.3719,507.1563 495.1688,506.9531 Q494.9656,506.7656 494.8563,506.25 Q494.8094,505.8906 494.6219,505.7031 Q494.2938,505.3281 493.6844,505.1094 Q493.075,504.8906 492.45,504.8906 Q491.6844,504.8906 491.0438,505.2188 Q490.4188,505.5469 489.9188,506.2969 Q489.4344,507.0469 489.4344,508.0781 L489.4344,509.1719 Q489.4344,510.4063 490.325,511.2344 Q491.2156,512.0469 492.8094,512.0469 Q493.7469,512.0469 494.4031,511.7969 Q494.7938,511.6406 495.2156,511.2031 Q495.4813,510.9375 495.6219,510.8594 Q495.7781,510.7813 495.9813,510.7813 Q496.3094,510.7813 496.5594,511.0469 Q496.825,511.2969 496.825,511.6406 Q496.825,511.9844 496.4813,512.3906 Q495.9813,512.9688 495.1844,513.2969 Q494.1063,513.75 492.8094,513.75 Q491.2938,513.75 490.0906,513.125 Q489.1063,512.625 488.4188,511.5625 Q487.7313,510.4844 487.7313,509.2031 L487.7313,508.0469 Q487.7313,506.7188 488.3406,505.5781 Q488.9656,504.4219 490.0594,503.8125 Q491.1531,503.1875 492.3875,503.1875 Q493.1219,503.1875 493.7625,503.3594 Q494.4188,503.5156 494.9656,503.875 Z " fill="#000000"/><text fill="#000000" font-family="sans-serif" font-size="12" lengthAdjust="spacing" textLength="35" x="510.8" y="512.9102">State4</text><line style="stroke:#383838;stroke-width:1.5;" x1="457.5" x2="568.5" y1="524" y2="524"/><line style="stroke:#383838;stroke-width:1.5;" x1="457.5" x2="568.5" y1="532" y2="532"/><text fill="#000000" font-family="sans-serif" font-size="11" lengthAdjust="spacing" textLength="101" x="462.5" y="547.4189">+executeStateTask()</text><!--MD5=[66b0167828a6010fca56e2affda5d022]
reverse link State to State1--><path codeLine="57" d="M388.99,450.23 C383.92,465.4 379.08,479.89 375.09,491.83 " fill="none" id="State-backto-State1" style="stroke:#383838;stroke-width:1.0;"/><polygon fill="none" points="382.38,447.91,395.36,431.16,395.66,452.35,382.38,447.91" style="stroke:#383838;stroke-width:1.0;"/><!--MD5=[d723ca8acf6686879b161e363a2a1b18]
reverse link State to State2--><path codeLine="58" d="M340.1,417.04 C309.47,443.15 276.48,471.29 252.36,491.85 " fill="none" id="State-backto-State2" style="stroke:#383838;stroke-width:1.0;"/><polygon fill="none" points="335.6,411.68,355.36,404.03,344.68,422.33,335.6,411.68" style="stroke:#383838;stroke-width:1.0;"/><!--MD5=[0e8ad03afc6f872c2e6a1f2b495cb124]
reverse link State to State3--><path codeLine="59" d="M508.75,408.62 C546.76,436.92 589.81,468.99 620.42,491.78 " fill="none" id="State-backto-State3" style="stroke:#383838;stroke-width:1.0;"/><polygon fill="none" points="504.41,414.11,492.55,396.55,512.77,402.88,504.41,414.11" style="stroke:#383838;stroke-width:1.0;"/><!--MD5=[cecdd715c38a024475b75ecac9c61f45]
reverse link State to State4--><path codeLine="60" d="M472.46,449.18 C474.64,453.52 476.83,457.81 479,462 C484.07,471.78 489.89,482.28 495.26,491.72 " fill="none" id="State-backto-State4" style="stroke:#383838;stroke-width:1.0;"/><polygon fill="none" points="466.12,452.15,463.53,431.12,478.67,445.94,466.12,452.15" style="stroke:#383838;stroke-width:1.0;"/><!--MD5=[6c9d0c028cf691fcd8268428fd120071]
link StateMachine to State1--><path codeLine="63" d="M273.3962,191.8576 C273.3962,191.8576 315.02,353.2 338,434 C342.22,448.83 347.09,464.98 351.52,479.35 " fill="none" id="StateMachine-State1" style="stroke:#383838;stroke-width:1.0;"/><polygon fill="#383838" points="355.44,491.95,356.5895,482.1685,353.9564,487.1752,348.9497,484.5421,355.44,491.95" style="stroke:#383838;stroke-width:1.0;"/><line style="stroke:#383838;stroke-width:1.0;" x1="353.9564" x2="351.585" y1="487.1752" y2="479.54"/><polygon fill="#383838" points="270.43,180.23,268.0372,187.0326,273.3962,191.8576,275.789,185.0551,270.43,180.23" style="stroke:#383838;stroke-width:1.0;"/><!--MD5=[fbfba0ce0315dbdfe836a8b1ff23dc33]
link StateMachine to State2--><path codeLine="64" d="M241.6838,192.2065 C241.6838,192.2065 225.24,411.96 220.26,478.48 " fill="none" id="StateMachine-State2" style="stroke:#383838;stroke-width:1.0;"/><polygon fill="#383838" points="219.27,491.7,223.931,483.0239,219.6434,486.714,215.9533,482.4264,219.27,491.7" style="stroke:#383838;stroke-width:1.0;"/><line style="stroke:#383838;stroke-width:1.0;" x1="219.6434" x2="220.24" y1="486.714" y2="478.74"/><polygon fill="#383838" points="242.58,180.24,238.1431,185.9245,241.6838,192.2065,246.1207,186.522,242.58,180.24" style="stroke:#383838;stroke-width:1.0;"/><!--MD5=[0bb6fba71c5b65a3fdb9eb05cbb582e1]
link StateMachine to State3--><path codeLine="65" d="M313.5522,114.6395 C313.5522,114.6395 447.78,166.23 507,210 C596.95,276.47 637.34,410 652.81,478.82 " fill="none" id="StateMachine-State3" style="stroke:#383838;stroke-width:1.0;"/><polygon fill="#383838" points="655.58,491.68,657.5899,482.0384,654.5245,486.7927,649.7702,483.7273,655.58,491.68" style="stroke:#383838;stroke-width:1.0;"/><line style="stroke:#383838;stroke-width:1.0;" x1="654.5245" x2="652.845" y1="486.7927" y2="478.97"/><polygon fill="#383838" points="302.2,110.75,306.5796,116.4788,313.5522,114.6395,309.1726,108.9107,302.2,110.75" style="stroke:#383838;stroke-width:1.0;"/><!--MD5=[1a00cf9724e8eb788bb3097a613be007]
link StateMachine to State4--><path codeLine="66" d="M313.5229,114.6061 C313.5229,114.6061 468.33,183.73 510,258 C548.95,327.43 536.43,424.16 524.35,479.2 " fill="none" id="StateMachine-State4" style="stroke:#383838;stroke-width:1.0;"/><polygon fill="#383838" points="521.4,491.92,527.3343,484.0597,522.5323,487.0499,519.5421,482.248,521.4,491.92" style="stroke:#383838;stroke-width:1.0;"/><line style="stroke:#383838;stroke-width:1.0;" x1="522.5323" x2="524.34" y1="487.0499" y2="479.26"/><polygon fill="#383838" points="302.24,110.52,306.5194,116.324,313.5229,114.6061,309.2435,108.8021,302.24,110.52" style="stroke:#383838;stroke-width:1.0;"/><!--MD5=[7351fdc9e1282cf1b2c94df03d5ea53b]
link StateMachine to State--><path codeLine="68" d="M302.22,170.22 C320.64,196.43 341.47,226.07 360.63,253.33 " fill="none" id="StateMachine-to-State" style="stroke:#383838;stroke-width:1.0;stroke-dasharray:7.0,7.0;"/><polygon fill="#383838" points="363.69,257.68,361.7876,248.0166,360.815,253.5892,355.2424,252.6166,363.69,257.68" style="stroke:#383838;stroke-width:1.0;"/><text fill="#000000" font-family="sans-serif" font-size="13" lengthAdjust="spacing" textLength="42" x="343" y="224.4951">«uses»</text><!--MD5=[565a62bc6257387e7aedcdc61096ef1d]
link Data to Status--><!--MD5=[37d9c16245e4a369af3b62ca7f660c67]
link StateMachine to Data--><path codeLine="71" d="M184.0232,125.6467 C184.0232,125.6467 176.98,126.75 174.04,126.97 " fill="none" id="StateMachine-Data" style="stroke:#383838;stroke-width:1.0;"/><polygon fill="#383838" points="161.02,127.1,170.0634,131.0009,166.0197,127.0451,169.9755,123.0013,161.02,127.1" style="stroke:#383838;stroke-width:1.0;"/><line style="stroke:#383838;stroke-width:1.0;" x1="166.0197" x2="174.02" y1="127.0451" y2="126.97"/><polygon fill="#FFFFFF" points="195.73,123.01,188.9977,120.4261,184.0232,125.6467,190.7555,128.2306,195.73,123.01" style="stroke:#383838;stroke-width:1.0;"/><!--MD5=[37d9c16245e4a369af3b62ca7f660c67]
link StateMachine to Data--><!--MD5=[021419da3b3c5843640be13c305b044e]
link StateMachine to Status--><path codeLine="72" d="M189.2302,171.8889 C189.2302,171.8889 147.8,237.08 130.46,266.98 " fill="none" id="StateMachine-Status" style="stroke:#383838;stroke-width:1.0;"/><polygon fill="#383838" points="123.76,278.64,131.7101,272.8266,126.2496,274.3039,124.7723,268.8433,123.76,278.64" style="stroke:#383838;stroke-width:1.0;"/><line style="stroke:#383838;stroke-width:1.0;" x1="126.2496" x2="130.235" y1="274.3039" y2="267.365"/><polygon fill="#FFFFFF" points="195.85,161.88,189.2038,164.6778,189.2302,171.8889,195.8764,169.0911,195.85,161.88" style="stroke:#383838;stroke-width:1.0;"/><!--MD5=[021419da3b3c5843640be13c305b044e]
link StateMachine to Status--><!--MD5=[6541d1ec03799231327b40b871178e71]
@startuml

skinparam monochrome true
skinparam classAttributeIconSize 0

together dataAndStatusGroup{
    class Data{
        +vGuestBook[]
        +bChangeState = true
        +nPreviousRandomNumber=1
    }

    class Status{
        +setStatus()
        +setStatusMessage()
        +getStatus()
        +getStatusMessage()
        -bExecutionStatus = true
        -spExecMessage
    }
}
class StateMachine{
    -spData
    -spStatus
    -spActualState
    -spNextState
    -spState1
    -spState2
    -spState3
    -spState4
    +runSTM()
}

class State{
    #spData
    #spStatus
    #spPossibleNextStates
    #spNextState
    +addPossibleNextStates()
    +returnNextState()
    {abstract}+executeStateTask()
    +setDataPointer()
    +setStatusPointer()
}
class State1{
    +executeStateTask()
}
class State2{
    +executeStateTask()
}
class State3{
    +executeStateTask()
}
class State4{
    +executeStateTask()
}

State <|- - State1
State <|- - State2
State <|- - State3
State <|- - State4


StateMachine *- -> State1
StateMachine *- -> State2
StateMachine *- -> State3
StateMachine *- -> State4

StateMachine ..> State:<<uses>>

Data -[hidden]down- Status
StateMachine o- -> Data
StateMachine o- -> Status

StateMachine -[hidden]right- - Data
StateMachine -[hidden]right- - Status

@enduml

PlantUML version 1.2021.00(Sun Jan 10 11:25:05 CET 2021)
(GPL source distribution)
Java Runtime: Java(TM) SE Runtime Environment
JVM: Java HotSpot(TM) 64-Bit Server VM
Default Encoding: Cp1252
Language: de
Country: DE
--></g></svg>